<?xml version="1.0" standalone="no"?>
<!DOCTYPE svg PUBLIC "-//W3C//DTD SVG 20010904//EN"
 "http://www.w3.org/TR/2001/REC-SVG-20010904/DTD/svg10.dtd">
<svg version="1.0" xmlns="http://www.w3.org/2000/svg"
 width="903.000000pt" height="903.000000pt" viewBox="0 0 903.000000 903.000000"
 preserveAspectRatio="xMidYMid meet">
<metadata>
Created by potrace 1.16, written by Peter Selinger 2001-2019
</metadata>
<g transform="translate(0.000000,903.000000) scale(0.100000,-0.100000)"
fill="#000000" stroke="none">
<path d="M5973 8771 c-132 -45 -203 -154 -203 -309 0 -48 -10 -74 -95 -243
l-95 -188 0 -82 c0 -93 -4 -105 -208 -542 -92 -200 -118 -247 -131 -242 -45
18 -209 57 -320 77 -108 19 -161 23 -371 23 -255 0 -363 -12 -516 -55 l-63
-18 10 25 c14 36 11 103 -7 162 -8 30 -13 64 -10 76 3 13 51 65 106 115 94 87
100 95 100 132 0 67 -68 114 -130 88 -16 -7 -48 -37 -71 -69 -49 -66 -98 -119
-120 -131 -10 -6 -34 -3 -64 5 -76 23 -180 19 -240 -9 -90 -42 -170 -145 -219
-284 -37 -105 -38 -106 -139 -181 -140 -104 -347 -225 -519 -305 l-98 -45 -24
47 c-33 67 -128 319 -277 741 -71 201 -137 379 -147 395 -10 17 -27 32 -38 34
-37 5 -47 -22 -47 -126 1 -117 16 -193 159 -765 57 -230 104 -420 104 -423 0
-10 -148 -74 -546 -235 -572 -231 -634 -258 -646 -285 -8 -17 -8 -27 2 -38 31
-38 64 -32 532 102 459 132 679 192 710 192 31 0 70 -190 82 -400 l7 -105 -51
-150 c-59 -173 -107 -361 -116 -452 -4 -35 -10 -60 -14 -56 -3 4 -14 49 -24
98 -21 108 -138 583 -166 676 -11 37 -28 73 -37 80 -26 22 -191 16 -303 -11
-379 -91 -776 -306 -1106 -598 -100 -88 -123 -126 -103 -163 14 -26 579 -629
652 -696 29 -27 56 -43 72 -43 14 0 84 23 155 50 71 28 138 50 148 50 74 0
394 -480 418 -627 l6 -41 -43 10 c-60 14 -115 -3 -178 -52 -56 -45 -81 -84
-81 -130 0 -30 6 -38 64 -84 l30 -23 -42 -28 c-48 -31 -51 -44 -21 -92 12 -19
19 -36 17 -38 -2 -2 -28 7 -57 21 -133 61 -303 48 -408 -32 -45 -34 -98 -115
-123 -189 -42 -121 -3 -141 133 -70 146 76 152 76 228 8 35 -32 39 -40 39 -83
0 -103 1 -102 -134 -162 -108 -49 -121 -58 -124 -82 -6 -46 49 -90 131 -106
64 -12 149 -9 203 6 18 5 24 -4 53 -82 17 -48 30 -88 29 -89 -2 -1 -178 -59
-393 -129 -214 -70 -397 -134 -405 -142 -12 -12 -12 -16 0 -28 8 -7 153 -49
323 -92 169 -43 307 -82 307 -86 0 -4 -40 -96 -90 -205 -49 -108 -90 -203 -90
-210 0 -8 7 -16 15 -19 8 -3 123 24 257 60 408 110 788 196 975 220 124 15
128 20 85 124 -18 43 -32 83 -32 88 0 6 87 27 193 47 936 180 1792 215 2692
111 316 -36 914 -127 942 -143 8 -4 0 -33 -25 -95 -25 -63 -32 -93 -26 -104 7
-10 55 -23 150 -39 371 -62 782 -157 1049 -244 84 -27 158 -49 164 -49 29 0
15 41 -79 235 -55 114 -100 211 -100 215 0 3 145 46 323 94 177 49 329 95 337
102 12 12 12 16 0 28 -20 18 -603 190 -772 226 -31 7 -61 16 -68 20 -7 4 3 46
32 133 38 112 41 128 28 140 -15 14 -137 42 -610 139 -177 36 -261 49 -302 46
l-57 -4 25 29 c13 16 24 35 24 42 0 8 15 24 33 36 17 13 56 42 85 66 29 23 72
48 95 55 69 20 128 89 192 223 65 135 137 269 238 443 l71 123 96 29 c138 42
279 76 411 99 219 39 269 80 269 223 0 62 -8 94 -51 218 -28 80 -54 157 -56
171 -6 32 19 91 168 400 65 136 119 258 119 271 0 32 -20 49 -104 87 -44 20
-66 35 -63 43 139 321 181 499 181 768 -1 235 -41 413 -137 605 -89 179 -166
279 -314 407 -303 263 -547 368 -854 368 l-109 0 16 33 c9 17 36 45 61 61 85
55 132 158 113 249 -29 139 -156 275 -377 401 -262 150 -517 210 -670 157z
m263 -50 c50 -10 105 -26 122 -35 17 -9 40 -16 50 -16 11 0 25 -6 31 -14 7 -8
27 -18 44 -22 18 -3 34 -9 37 -13 3 -3 40 -24 83 -46 43 -22 87 -44 98 -50 10
-5 19 -13 19 -17 0 -5 7 -8 15 -8 8 0 15 -4 15 -10 0 -14 -23 -13 -38 2 -7 7
-12 8 -12 2 0 -15 38 -35 45 -24 9 15 19 12 46 -10 78 -65 149 -149 149 -174
0 -9 4 -16 9 -16 12 0 32 -114 20 -118 -5 -2 -9 -13 -9 -24 0 -36 -80 -131
-123 -147 -15 -6 -27 -16 -27 -23 0 -7 -7 -26 -16 -43 -9 -16 -22 -44 -29 -62
l-13 -31 141 0 c132 1 212 -8 297 -34 67 -21 66 -20 40 -29 -23 -8 -23 -8 5
-5 46 6 83 -4 88 -25 3 -10 13 -19 23 -19 16 0 16 1 -2 15 -10 8 -14 15 -7 15
6 0 18 -7 27 -15 8 -9 18 -15 21 -15 8 1 127 -59 142 -72 7 -6 32 -20 54 -32
23 -13 40 -26 39 -31 -1 -4 13 -15 30 -23 16 -8 49 -32 73 -54 23 -21 57 -52
75 -69 18 -16 42 -50 54 -75 15 -33 23 -42 29 -32 7 11 11 10 19 -2 6 -8 8
-23 6 -33 -2 -9 0 -15 5 -11 5 3 9 0 9 -5 0 -6 -5 -11 -10 -11 -6 0 7 -26 29
-57 21 -32 46 -73 55 -90 9 -18 18 -33 21 -33 2 0 -3 15 -11 33 -8 17 -17 40
-21 50 -3 9 -9 17 -14 17 -5 0 -9 6 -9 13 0 7 -9 21 -21 30 -11 10 -19 23 -17
29 9 26 24 14 48 -34 14 -29 34 -66 45 -83 11 -16 33 -59 48 -95 16 -36 33
-74 38 -85 11 -26 35 -116 60 -230 25 -114 36 -358 20 -435 -7 -30 -16 -77
-21 -105 -14 -79 -48 -194 -78 -270 -11 -27 -30 -76 -43 -108 -18 -47 -25 -56
-40 -52 -11 4 -19 1 -19 -5 0 -6 5 -8 10 -5 6 3 10 2 10 -4 0 -17 -51 -111
-61 -111 -19 0 -8 -21 17 -30 14 -6 33 -18 43 -28 9 -10 12 -12 7 -5 -10 15
22 93 38 93 5 0 37 -16 71 -36 61 -36 62 -37 50 -63 -8 -14 -24 -48 -37 -76
-13 -27 -25 -52 -28 -55 -8 -8 -50 -111 -61 -147 -6 -18 -14 -33 -19 -33 -6 0
-10 -5 -10 -12 0 -11 -29 -75 -85 -188 -51 -102 -51 -108 -4 -228 58 -147 79
-227 79 -294 0 -50 -4 -60 -32 -91 -32 -33 -130 -78 -166 -76 -9 0 9 9 40 19
153 48 180 128 110 330 -64 182 -91 230 -129 230 -30 0 -30 -32 0 -141 43
-154 59 -237 49 -255 -9 -16 -10 -16 -15 2 -3 10 -8 35 -12 54 -3 19 -10 44
-15 55 -5 11 -18 67 -30 125 -12 58 -26 113 -32 123 -7 14 2 42 40 120 27 56
53 112 56 125 4 12 12 22 18 22 18 0 48 32 47 49 0 11 -3 10 -11 -6 -6 -12
-17 -24 -24 -27 -8 -3 -1 19 16 53 17 32 30 62 30 65 0 22 74 174 84 172 6 -2
8 -1 4 1 -10 6 -10 33 0 33 4 0 9 10 9 22 2 15 -1 18 -6 10 -4 -7 -16 -10 -27
-7 -17 6 -17 5 -2 -5 16 -10 16 -15 -9 -65 -22 -45 -31 -54 -48 -50 -18 5 -18
5 -3 -5 16 -10 13 -18 -27 -97 -25 -48 -45 -92 -45 -98 0 -6 -6 -17 -12 -24
-7 -6 -13 -15 -13 -19 -1 -18 -49 -111 -56 -107 -4 3 -5 -5 -1 -17 4 -16 2
-19 -8 -13 -8 5 -11 4 -6 -3 3 -6 -5 -36 -18 -66 l-25 -55 19 -88 c23 -113 48
-220 60 -259 13 -40 13 -44 -3 -44 -8 0 -18 24 -26 63 -7 34 -23 105 -35 157
-13 52 -26 112 -30 133 -4 22 -13 37 -21 37 -22 0 -26 -14 -16 -61 6 -24 19
-87 30 -139 10 -52 24 -108 30 -123 13 -33 15 -87 3 -87 -4 0 -13 26 -20 57
-7 32 -19 85 -27 118 -8 33 -22 95 -31 137 -17 73 -38 104 -54 78 -4 -7 -18
-8 -33 -5 -19 5 -26 13 -24 27 1 12 -4 22 -11 24 -7 1 -8 0 -2 -3 19 -9 10
-20 -16 -20 -19 0 -24 3 -18 16 3 9 9 26 11 39 6 27 19 28 61 2 18 -11 39 -20
46 -20 8 0 16 -4 18 -9 2 -4 13 -11 25 -15 18 -6 25 1 49 43 15 28 31 48 37
44 6 -3 7 -1 4 4 -4 6 -2 26 5 44 9 25 9 34 0 37 -7 2 -12 11 -12 21 0 18 -18
41 -32 41 -4 0 -8 -4 -8 -10 0 -5 7 -10 15 -10 8 0 15 -7 15 -15 0 -19 2 -19
-48 5 -22 11 -46 20 -52 20 -17 0 -11 18 8 24 9 2 -1 2 -22 -1 -35 -5 -38 -4
-32 12 15 40 27 111 22 131 -4 15 -19 27 -43 34 -35 11 -66 30 -50 30 3 0 29
-9 57 -20 l52 -20 -7 32 c-4 18 -15 52 -26 75 -21 46 -24 63 -11 63 4 0 19 18
32 40 14 22 30 38 35 36 41 -16 49 -17 27 -4 -12 8 -20 17 -16 21 4 4 13 2 21
-4 9 -9 13 -8 13 0 0 6 10 16 23 21 13 5 16 9 6 9 -8 1 -19 -3 -25 -9 -6 -6
-25 -4 -54 5 -70 21 -223 56 -247 55 -13 0 -23 5 -23 10 0 6 16 10 35 10 24 0
37 6 45 19 14 28 13 63 -5 87 -8 12 -12 24 -9 26 6 7 44 137 49 168 13 100 15
196 5 274 -10 73 -10 90 1 97 19 11 18 87 -1 99 -8 5 -25 10 -37 10 -16 0 -23
8 -28 29 -3 16 -13 35 -21 42 -8 6 -14 20 -14 30 0 11 -5 19 -11 19 -6 0 -8 7
-5 16 3 8 2 13 -3 10 -4 -3 -21 11 -37 32 -76 96 -184 189 -256 220 -18 7 -26
17 -22 26 3 8 -2 29 -11 46 -15 30 -20 32 -53 27 -19 -4 -39 -11 -42 -18 -6
-8 -30 -5 -91 10 -182 46 -336 37 -503 -30 -107 -42 -110 -43 -101 -30 3 5 -5
13 -17 17 -34 11 -58 12 -52 2 4 -5 12 -7 20 -4 14 5 44 -18 44 -35 0 -14 -11
-11 -27 9 -13 15 -13 15 -4 -4 13 -26 5 -35 -24 -28 -24 6 -43 -10 -25 -21 12
-7 4 -25 -11 -25 -6 0 -7 6 -3 13 5 8 2 8 -9 -2 -18 -15 -23 -26 -7 -16 6 3
10 2 10 -4 0 -5 -3 -11 -7 -14 -5 -2 -2 -2 6 0 8 2 23 -5 35 -14 21 -18 21
-18 2 4 -16 19 -17 25 -6 38 7 9 22 14 34 13 13 -2 20 2 18 10 -2 12 64 46
123 63 17 4 55 15 85 24 66 19 243 22 315 5 81 -19 218 -72 251 -97 17 -13 37
-23 44 -23 6 0 25 -10 40 -22 16 -13 44 -35 63 -51 20 -15 34 -35 32 -45 -1
-9 0 -11 2 -4 7 20 18 14 49 -28 16 -22 32 -40 36 -40 6 0 36 -48 86 -142 105
-193 108 -516 7 -736 -23 -50 -27 -54 -52 -48 -16 4 -45 9 -66 13 -33 5 -38 9
-32 27 34 116 30 273 -10 392 -14 42 -24 83 -21 91 3 8 2 11 -4 8 -5 -3 -25
23 -45 57 -20 35 -46 73 -58 86 -18 20 -19 25 -7 33 12 9 11 10 -4 5 -15 -5
-33 6 -70 43 -52 51 -214 141 -255 141 -11 0 -22 4 -25 9 -10 16 -177 34 -261
28 -80 -7 -250 -52 -272 -73 -6 -6 -35 -26 -65 -45 -55 -35 -68 -45 -94 -68
-13 -11 -17 -12 -24 -2 -5 9 -10 10 -14 2 -4 -6 -2 -11 3 -11 17 0 13 -14 -9
-38 -11 -12 -20 -31 -21 -44 -1 -22 -1 -22 -8 2 -4 14 -17 29 -29 35 -12 5
-25 17 -28 27 -6 19 -123 118 -140 118 -6 0 5 35 26 78 20 42 45 95 55 117 20
45 147 307 273 563 l85 172 51 1 51 1 -40 9 c-71 15 -155 42 -155 49 0 4 -19
13 -42 20 -24 8 -45 17 -48 20 -3 3 -40 23 -82 45 -43 22 -78 43 -78 47 0 5
-4 8 -10 8 -12 0 -48 30 -108 90 -26 27 -42 37 -37 25 4 -11 8 -26 8 -33 0 -6
3 -10 5 -7 3 3 11 -4 19 -14 14 -21 11 -33 -31 -124 -51 -108 -96 -209 -96
-215 0 -6 -53 -121 -81 -174 -11 -20 -26 -55 -34 -77 -8 -23 -30 -74 -49 -114
-60 -124 -86 -189 -86 -213 0 -27 -7 -29 -34 -9 -10 8 -23 12 -27 9 -16 -9
-10 15 27 109 49 127 67 167 74 167 4 0 7 6 7 13 0 6 11 37 25 67 50 106 108
243 108 252 0 5 13 37 29 71 16 34 38 89 50 121 11 33 24 62 28 65 5 3 18 35
30 71 15 46 18 67 10 72 -17 10 -23 3 -48 -64 -12 -35 -27 -66 -32 -69 -5 -3
-8 -9 -7 -13 2 -13 -23 -86 -31 -86 -4 0 -10 -18 -14 -40 -4 -22 -11 -40 -16
-40 -4 0 -6 -7 -3 -15 4 -8 1 -15 -4 -15 -6 0 -14 -10 -17 -22 -14 -49 -49
-128 -57 -128 -4 0 -8 -5 -8 -10 0 -6 -18 -51 -39 -101 -33 -78 -40 -88 -50
-73 -6 11 -10 15 -11 9 0 -5 4 -17 10 -25 5 -8 5 -19 0 -25 -4 -5 -20 -39 -34
-75 -15 -36 -31 -74 -36 -85 -6 -11 -16 -45 -24 -75 -8 -30 -15 -49 -15 -42
-1 6 -10 12 -21 12 -23 0 -24 8 -8 61 7 24 17 39 27 39 12 0 13 2 3 9 -14 9
-7 28 90 231 90 189 106 224 124 275 10 27 26 65 36 84 10 20 18 43 18 53 0
10 4 18 9 18 5 0 13 17 19 38 6 20 27 80 48 132 30 77 37 106 35 156 -2 64 0
68 99 279 20 44 46 101 56 127 21 52 40 65 29 21 -4 -18 -3 -24 3 -18 5 6 12
24 16 40 4 20 4 25 -3 16 -6 -10 -9 10 -9 60 -1 79 25 172 44 165 6 -2 27 9
45 24 19 16 38 29 42 30 5 0 15 7 23 15 31 31 -9 15 -53 -21 -24 -20 -47 -34
-50 -31 -8 9 60 66 87 73 14 3 36 10 50 14 42 14 131 11 226 -9z m-4109 -899
c17 -48 34 -102 38 -119 4 -18 10 -33 15 -33 4 0 11 -16 15 -36 3 -20 10 -44
15 -53 5 -9 23 -59 40 -111 18 -52 36 -104 41 -115 5 -11 25 -65 45 -120 20
-55 43 -116 50 -135 7 -19 13 -43 14 -52 0 -10 5 -18 10 -18 6 0 10 -8 10 -19
0 -10 19 -67 41 -127 23 -60 59 -163 81 -229 38 -113 40 -125 35 -210 -3 -49
-13 -152 -22 -228 -14 -116 -15 -162 -6 -285 14 -188 44 -282 123 -379 69 -86
78 -98 78 -110 0 -6 3 -13 8 -15 13 -6 58 -82 76 -130 22 -60 24 -161 3 -209
-39 -93 -139 -159 -243 -160 -69 -1 -107 14 -161 65 -49 45 -76 97 -94 179
-17 78 0 141 61 232 106 158 118 208 100 420 -6 72 -15 186 -20 255 -11 142
-27 222 -100 505 -28 110 -58 232 -66 270 -9 39 -22 92 -30 119 -8 26 -14 55
-14 62 0 16 -58 246 -115 459 -61 225 -92 415 -67 415 4 0 21 -39 39 -88z
m1981 -84 c27 -27 11 -54 -100 -160 l-111 -108 18 -68 c46 -166 8 -259 -141
-342 -59 -34 -136 -37 -240 -10 -57 14 -106 21 -139 18 -53 -5 -222 -67 -266
-99 -15 -10 -30 -19 -33 -19 -8 0 -101 -63 -104 -72 -2 -4 -8 -8 -14 -8 -8 0
-173 -138 -258 -216 -14 -13 -45 -41 -69 -64 -24 -22 -47 -40 -50 -40 -8 0
-51 126 -51 147 0 6 10 15 23 19 61 19 409 207 415 225 2 5 8 9 13 9 18 0 175
95 237 143 34 27 69 62 77 77 8 16 21 34 28 42 7 7 21 37 31 67 9 29 28 71 42
92 13 21 24 43 24 49 0 5 3 10 8 10 4 0 16 14 27 30 22 33 70 66 125 87 40 14
146 17 154 4 3 -5 22 -12 42 -15 54 -11 109 22 169 100 86 113 113 132 143
102z m1706 -99 c-3 -5 -10 -7 -15 -4 -5 3 -6 -1 -3 -9 3 -8 -1 -28 -8 -43 -56
-109 -73 -145 -73 -151 0 -4 -14 -36 -32 -72 -18 -36 -45 -94 -62 -130 -16
-36 -41 -91 -55 -122 -14 -31 -26 -61 -26 -67 0 -5 -3 -11 -8 -13 -4 -1 -31
-58 -59 -126 l-51 -122 25 -20 c14 -11 30 -20 36 -20 6 0 8 -3 5 -6 -7 -6
-104 41 -113 56 -3 6 0 7 9 4 11 -4 19 3 26 22 6 16 20 47 30 69 10 22 38 81
60 130 52 111 91 195 131 281 17 36 37 83 44 104 7 21 25 60 39 86 14 27 26
53 26 59 0 5 12 36 27 67 21 43 31 54 40 46 7 -6 10 -14 7 -19z m196 -113 c0
-8 5 -18 12 -22 7 -4 8 -3 4 4 -9 15 -1 15 54 -2 51 -15 53 -26 16 -91 -13
-22 -29 -57 -35 -77 -7 -21 -16 -38 -20 -38 -4 0 -13 -17 -20 -37 -7 -21 -26
-65 -41 -98 -77 -162 -173 -375 -187 -412 -8 -24 -19 -43 -24 -43 -5 0 -9 -8
-9 -18 0 -10 -3 -22 -7 -26 -5 -4 -16 -28 -25 -54 -9 -26 -17 -40 -17 -32 -1
15 -25 32 -89 66 -26 13 -26 14 -4 14 13 0 21 4 17 9 -3 5 4 31 16 58 12 26
27 62 34 78 7 17 28 68 48 115 20 47 39 95 42 108 6 20 9 21 22 10 14 -12 15
-11 3 7 -11 18 -7 31 24 98 20 43 36 80 36 83 0 7 51 126 97 226 15 31 30 55
34 53 4 -3 5 4 2 15 -3 11 0 20 6 20 6 0 11 -6 11 -14z m-1200 -326 c86 -11
184 -31 320 -68 52 -14 103 -25 113 -24 25 1 22 -39 -9 -123 -14 -38 -28 -80
-31 -92 -8 -32 -22 -33 -103 -7 -240 79 -673 96 -954 39 -158 -33 -332 -93
-486 -170 -90 -45 -136 -71 -170 -95 -19 -14 -42 -29 -51 -35 -37 -22 -150
-106 -185 -137 -133 -119 -305 -313 -344 -388 -7 -14 -16 -27 -20 -30 -30 -22
-142 -239 -195 -378 l-32 -83 -16 24 c-23 36 -54 133 -66 208 -13 74 -14 196
-3 201 4 2 18 26 32 53 14 28 28 55 33 60 4 6 28 42 53 80 25 39 50 71 55 73
4 2 18 20 31 40 59 97 294 328 437 430 72 51 195 132 202 132 4 0 38 19 75 42
61 37 78 42 150 48 90 7 165 38 221 91 24 22 58 36 145 58 249 64 537 82 798
51z m-1327 -187 c4 -3 -28 -25 -71 -48 -177 -95 -326 -211 -492 -381 -97 -100
-248 -286 -311 -384 -15 -23 -16 -22 -8 30 4 30 13 100 19 155 7 55 15 109 19
121 11 38 332 310 474 401 79 52 168 94 217 104 47 9 145 11 153 2z m1392
-123 c122 -21 237 -52 355 -98 91 -34 330 -152 350 -172 3 -3 37 -26 75 -51
72 -48 96 -67 165 -130 22 -20 40 -35 40 -34 0 4 110 -107 158 -159 23 -26 42
-51 42 -56 0 -6 4 -10 9 -10 12 0 181 -255 195 -294 6 -17 16 -37 23 -44 7 -7
20 -38 29 -70 9 -31 19 -64 23 -72 9 -17 36 -106 51 -167 14 -58 28 -62 36
-11 6 32 9 38 14 23 4 -11 5 -36 3 -55 -6 -45 14 -101 27 -80 7 11 10 8 10
-14 l0 -29 108 6 c80 4 124 11 176 30 39 14 73 24 77 21 4 -2 10 2 12 8 4 10
8 9 16 -2 15 -21 14 -40 -3 -34 -7 3 -28 -4 -47 -15 -54 -31 -136 -51 -235
-58 -90 -6 -91 -5 -98 18 -6 23 -7 23 -18 5 -8 -15 -8 -39 3 -100 9 -53 13
-153 13 -291 -1 -197 -3 -219 -34 -360 -18 -82 -35 -162 -37 -177 -3 -16 -9
-28 -14 -28 -5 0 -9 -7 -9 -15 0 -23 -42 -140 -51 -143 -5 -2 -9 -8 -9 -13 0
-17 -78 -176 -89 -184 -6 -3 -11 -14 -12 -23 0 -9 -10 -31 -22 -48 -12 -18
-48 -71 -80 -118 -33 -47 -64 -89 -70 -94 -7 -4 -34 -34 -61 -67 -27 -33 -59
-69 -71 -80 -145 -133 -172 -155 -186 -155 -5 0 -7 -4 -4 -10 3 -6 1 -10 -4
-10 -9 0 -68 -41 -121 -84 -9 -7 -22 -15 -30 -19 -8 -4 -33 -18 -55 -32 -22
-13 -51 -25 -65 -26 -17 -1 -12 -4 15 -8 22 -4 55 -3 74 2 36 9 159 86 181
112 7 8 17 15 22 15 5 0 26 17 45 37 20 20 44 37 54 38 10 1 27 10 39 20 31
28 24 8 -10 -28 -36 -39 -40 -60 -4 -26 18 17 23 19 18 6 -4 -10 -1 -17 6 -17
9 0 7 -7 -5 -20 -22 -24 -34 -18 -14 7 11 15 10 15 -9 -1 -15 -13 -19 -22 -11
-27 8 -5 8 -8 0 -13 -6 -4 -11 -2 -11 5 0 7 -3 10 -6 6 -3 -3 2 -16 11 -29 10
-13 15 -16 12 -6 -7 21 25 50 46 42 10 -3 14 -11 11 -16 -4 -7 -9 -6 -14 1 -5
9 -10 8 -18 -2 -9 -11 -8 -13 8 -12 27 2 64 36 49 46 -8 5 -8 8 0 13 6 4 11
12 11 18 0 7 -4 7 -13 -1 -8 -6 -17 -7 -22 -3 -4 4 -2 -4 4 -16 7 -13 10 -26
7 -30 -3 -3 -6 0 -6 7 0 7 -4 10 -9 7 -17 -11 -8 44 11 61 17 16 58 30 43 15
-4 -4 -10 -7 -13 -7 -13 0 -32 -16 -32 -26 0 -6 6 -7 12 -3 7 5 21 9 30 9 17
2 17 0 1 -17 -9 -10 -14 -20 -11 -23 3 -3 13 4 23 15 10 11 23 20 29 20 5 0
-11 -21 -36 -47 -42 -44 -45 -49 -30 -63 14 -13 15 -12 9 3 -4 12 2 25 20 40
14 12 37 34 51 50 14 15 30 27 36 27 6 0 -14 -25 -44 -56 -30 -30 -46 -52 -36
-48 13 5 17 4 12 -4 -4 -7 -2 -12 4 -12 7 0 10 6 7 14 -3 7 14 32 39 57 24 24
44 39 44 34 0 -11 25 13 26 26 3 19 4 20 15 14 7 -5 3 -16 -12 -31 -12 -13
-25 -21 -29 -19 -4 2 -21 -13 -39 -35 -18 -22 -27 -40 -21 -40 6 0 9 -4 6 -8
-2 -4 4 -8 14 -8 10 0 17 4 14 7 -2 4 0 10 6 14 5 3 10 11 10 17 0 6 -9 3 -20
-7 -11 -10 -20 -14 -20 -8 0 5 12 20 27 34 20 18 25 20 20 7 -4 -11 -2 -18 5
-18 6 0 3 -9 -7 -20 -10 -11 -14 -20 -8 -20 5 0 18 9 29 21 10 11 28 25 39 31
11 5 -2 -11 -29 -36 -26 -24 -53 -43 -60 -40 -14 5 -70 -42 -62 -54 3 -5 -12
-17 -32 -27 -27 -14 -32 -20 -19 -22 9 -3 17 -9 17 -14 0 -5 7 -9 17 -9 9 0
14 -2 11 -5 -2 -3 -70 4 -149 14 -357 48 -715 66 -1289 66 -515 -1 -863 -16
-1156 -50 -71 -9 -167 -20 -214 -25 -47 -5 -132 -16 -190 -24 -58 -8 -154 -22
-215 -30 -103 -15 -305 -49 -350 -60 -11 -3 -58 -12 -105 -20 -298 -52 -334
-60 -310 -66 16 -4 -18 -12 -98 -24 -68 -10 -121 -20 -118 -23 5 -5 308 37
315 43 2 2 -13 5 -35 5 -36 1 -35 2 15 10 30 5 60 7 65 5 6 -2 -2 -5 -19 -7
l-30 -2 35 -7 35 -7 -35 -3 -35 -2 30 -9 c22 -5 13 -7 -30 -4 -46 3 -53 2 -30
-5 23 -7 16 -8 -30 -5 -60 4 -60 4 -17 -6 35 -8 70 -6 170 10 70 12 134 21
142 20 22 -1 -94 -23 -265 -49 l-149 -24 59 -13 c40 -9 61 -10 63 -3 2 5 18
10 35 10 23 0 28 -3 20 -11 -7 -7 -37 -12 -68 -12 -38 0 -52 -3 -43 -9 8 -6
-3 -8 -32 -4 -37 5 -41 4 -26 -5 15 -9 47 -8 138 6 65 10 120 16 123 13 3 -2
-50 -13 -118 -22 -144 -21 -201 -37 -112 -31 l60 4 -60 -13 c-33 -7 -53 -14
-45 -15 8 -1 33 -3 55 -6 36 -4 37 -3 10 5 -23 7 -15 8 35 5 44 -2 54 -1 30 4
-24 5 -7 7 55 7 l90 -1 -58 -10 c-32 -5 -56 -12 -53 -15 3 -3 -11 -4 -31 -2
-25 3 -34 1 -29 -7 6 -8 0 -10 -17 -6 -14 4 -28 2 -32 -5 -4 -6 -15 -8 -25 -5
-10 3 -21 1 -24 -4 -7 -10 28 -8 154 9 44 6 87 7 105 2 25 -7 12 -11 -83 -26
-62 -9 -123 -14 -135 -11 -16 5 -18 4 -8 -4 12 -7 10 -10 -10 -14 -13 -2 3 -3
36 -1 l60 3 -75 -14 c-172 -33 -94 -27 160 11 91 14 176 28 190 31 l25 6 -25
7 -25 8 25 2 c18 1 10 6 -25 15 l-50 13 55 -4 c40 -3 48 -1 30 5 -23 8 -21 9
15 11 35 2 37 3 15 10 -14 4 -41 9 -60 10 -32 2 -33 3 -10 9 21 7 17 9 -30 18
-50 10 -51 11 -15 10 22 0 49 3 60 6 11 4 81 13 155 22 74 8 145 18 158 21 13
4 22 2 22 -5 0 -6 -6 -11 -13 -11 -7 0 -21 -9 -30 -21 -10 -11 -25 -18 -33
-15 -9 3 -12 1 -9 -4 3 -6 10 -10 15 -10 5 0 46 -38 92 -84 79 -79 151 -126
195 -126 10 0 36 16 57 35 22 19 42 35 45 35 4 0 2 42 -3 94 l-9 94 -47 21
c-25 11 -52 21 -58 21 -7 0 -12 4 -12 9 0 5 42 12 93 15 97 8 214 22 253 32
15 4 24 2 24 -5 0 -6 -7 -11 -15 -11 -8 0 -15 -3 -15 -7 0 -5 -14 -17 -30 -28
l-31 -20 7 -95 c3 -52 9 -98 13 -101 3 -4 53 1 109 10 74 11 107 21 116 34 7
9 16 17 19 17 10 0 67 61 67 72 0 5 6 8 13 6 10 -4 31 -147 23 -156 -2 -1 -75
-11 -162 -22 -87 -10 -213 -26 -279 -34 -123 -15 -387 -56 -484 -75 -70 -14
-75 -14 -57 4 8 8 20 15 26 15 6 0 13 7 16 15 4 8 12 15 19 15 19 0 29 20 17
32 -8 8 -143 -10 -205 -28 -25 -8 0 -30 50 -43 64 -17 61 -36 -6 -36 -72 -1
-153 -14 -146 -24 10 -17 -70 -20 -143 -6 -92 18 -108 12 -20 -7 l63 -14 -95
-14 c-52 -7 -87 -15 -77 -18 10 -2 76 6 147 18 71 12 136 20 145 18 9 -2 -52
-14 -137 -28 -121 -20 -146 -26 -118 -31 19 -4 26 -7 15 -8 l-20 -2 20 -9 c11
-5 29 -8 40 -8 16 0 15 2 -5 8 l-25 8 25 0 c14 0 63 -8 110 -18 84 -19 84 -19
25 -15 -53 4 -55 3 -20 -5 22 -4 57 -11 79 -15 21 -3 35 -9 32 -12 -3 -3 -46
2 -96 12 -50 10 -93 15 -96 12 -3 -3 16 -9 43 -13 60 -9 106 -27 52 -20 -20 2
-41 1 -45 -4 -5 -5 -20 -10 -34 -13 -20 -3 -19 -5 10 -7 l35 -2 -30 -8 c-20
-5 -5 -7 46 -6 43 1 75 4 72 9 -2 4 8 7 23 7 15 0 71 8 123 17 74 13 90 19 71
25 -20 5 -16 7 15 5 22 -1 74 4 115 11 948 163 1642 216 2410 182 245 -11 610
-42 785 -67 61 -8 139 -19 175 -23 118 -15 284 -39 370 -54 47 -8 131 -20 188
-27 56 -7 102 -16 102 -20 0 -10 338 -65 347 -56 2 3 -19 10 -49 16 l-53 10
55 -4 c38 -2 47 -1 30 5 -14 4 -38 8 -54 9 -41 1 -26 12 31 23 27 4 66 12 88
17 l40 9 -35 2 -35 3 40 6 c40 7 40 7 -22 14 -34 4 -74 5 -90 2 -24 -4 -25 -4
-8 5 15 8 7 9 -35 6 -36 -3 -46 -2 -30 3 20 7 13 10 -40 17 -64 8 -64 9 -25
15 l40 6 -35 3 -35 3 35 7 35 7 -30 3 -30 2 30 8 30 8 -34 1 c-19 0 -32 4 -28
7 3 3 30 3 59 -2 49 -7 50 -8 23 -15 -59 -13 10 -9 90 6 102 19 155 33 130 34
-11 0 -47 -6 -80 -14 -33 -8 -71 -14 -85 -14 -17 1 -13 4 15 10 22 5 69 16
105 24 l65 14 -59 -5 c-33 -3 -70 -10 -84 -15 -13 -5 -33 -9 -45 -8 -13 1 -3
6 23 14 41 12 43 13 15 15 l-30 2 35 9 c19 5 58 6 86 3 36 -4 54 -2 59 7 6 9
2 11 -15 6 -13 -3 -29 -2 -34 2 -22 17 -147 34 -159 22 -8 -8 -7 -11 4 -12 9
0 6 -4 -6 -9 l-20 -9 20 -1 20 -1 -20 -9 c-18 -8 -18 -9 5 -10 21 -1 19 -4
-15 -16 -32 -12 -49 -13 -83 -4 -24 6 -47 8 -52 5 -5 -3 -17 -1 -27 4 -10 6
-52 15 -93 20 -41 6 -138 19 -215 30 -77 11 -147 21 -155 21 -8 1 12 12 45 26
33 13 63 28 67 32 4 4 12 45 17 91 l11 84 -32 29 c-17 15 -41 35 -52 43 -20
15 -20 16 8 10 17 -4 68 -11 115 -16 47 -5 145 -19 216 -30 72 -11 148 -18
169 -15 29 3 36 2 25 -6 -10 -7 -4 -8 20 -4 19 4 109 -5 199 -19 91 -14 174
-24 186 -22 12 2 4 5 -18 6 -31 1 -36 4 -27 14 6 8 8 17 4 20 -3 4 9 8 28 8
l34 2 -35 7 -35 7 35 3 35 3 -35 8 c-28 6 -22 7 25 4 40 -2 52 -1 35 5 -14 4
-41 9 -60 10 -28 1 -31 3 -15 9 18 7 17 8 -5 14 -38 9 -238 44 -295 52 -27 4
-52 10 -55 14 -7 9 -238 53 -320 61 l-65 6 50 5 c55 6 48 7 380 -51 229 -41
446 -83 497 -98 l26 -7 -44 -130 c-24 -71 -44 -137 -44 -145 0 -11 25 -20 98
-34 53 -10 126 -27 162 -38 36 -11 108 -31 160 -44 52 -14 148 -43 213 -65 65
-21 127 -39 138 -39 10 0 19 -3 19 -7 0 -7 -88 -32 -240 -68 -30 -7 -107 -27
-170 -45 -63 -18 -133 -37 -156 -42 -38 -8 -41 -11 -36 -36 3 -15 8 -29 12
-32 10 -8 46 -81 59 -122 7 -21 17 -38 22 -38 5 0 9 -5 9 -11 0 -17 62 -154
71 -157 20 -8 8 -24 -13 -18 -232 68 -478 131 -713 182 -202 44 -398 81 -450
86 -22 2 -40 8 -40 13 1 23 29 95 37 95 4 0 8 11 8 24 0 13 4 26 8 28 5 2 12
15 15 30 7 26 5 27 -40 34 -27 3 -113 17 -193 31 -145 24 -560 80 -805 108
-352 40 -869 59 -1209 45 -282 -11 -716 -44 -866 -65 -58 -8 -175 -24 -260
-35 -85 -11 -177 -25 -205 -30 -27 -5 -93 -16 -145 -25 -52 -9 -120 -20 -150
-25 -30 -6 -68 -11 -85 -12 -26 -3 -30 -7 -27 -28 2 -14 8 -26 13 -28 5 -2 9
-9 9 -17 0 -7 11 -38 25 -69 30 -67 30 -75 8 -74 -64 1 -717 -139 -948 -204
-135 -38 -249 -67 -252 -64 -2 2 6 21 17 42 33 66 117 248 125 274 4 13 14 30
21 38 30 30 17 48 -48 64 -35 9 -142 37 -238 63 -96 25 -193 51 -215 56 -84
19 -109 27 -91 28 10 1 71 19 135 40 64 22 143 46 176 55 33 8 101 27 150 42
81 24 134 36 273 63 53 10 57 14 39 43 -9 12 -19 40 -22 61 -4 20 -11 37 -15
37 -4 0 -11 16 -14 35 -4 20 -16 57 -27 82 -11 25 -17 48 -14 52 12 11 559
113 612 114 18 0 30 4 27 8 -2 4 26 10 63 14 38 4 84 11 103 15 35 9 198 35
315 50 147 19 289 41 292 44 2 2 -8 11 -22 20 -25 17 -33 36 -15 36 6 0 23
-11 38 -25 15 -14 37 -25 49 -25 28 0 30 16 3 25 -11 3 -20 10 -20 14 0 4 -11
13 -25 19 -14 6 -25 18 -25 27 0 8 -4 15 -9 15 -6 0 -22 11 -37 25 -15 14 -31
25 -35 25 -5 0 -9 9 -9 20 0 18 -3 19 -20 10 -22 -12 -40 -6 -40 12 0 7 6 6
15 -2 11 -9 15 -9 15 -1 0 7 5 9 10 6 6 -3 10 -1 10 4 0 6 -4 12 -10 12 -5 1
-14 2 -20 3 -5 0 -15 8 -22 16 -11 12 -11 12 4 1 15 -11 17 -10 16 11 -1 13
-6 30 -12 38 -10 13 -9 13 7 1 9 -7 17 -19 16 -25 -3 -23 1 -36 12 -36 6 0 8
8 5 18 -5 15 -4 15 8 -1 8 -11 13 -24 10 -31 -3 -7 7 -23 21 -36 28 -27 34
-17 7 14 -16 20 -16 20 1 7 24 -19 45 -56 25 -46 -7 3 -4 -1 6 -9 44 -36 47
-15 6 34 -61 70 -94 115 -77 101 16 -13 20 -13 28 0 6 9 9 10 9 2 0 -16 61
-85 68 -78 3 3 -5 18 -19 33 -13 16 0 4 29 -26 28 -31 52 -60 52 -66 0 -6 -13
5 -30 24 -16 19 -29 31 -30 26 0 -5 7 -17 15 -26 16 -17 10 -55 -6 -44 -14 8
-10 -9 7 -31 16 -20 16 -19 9 4 -5 16 -4 21 4 17 7 -5 9 -1 5 8 -3 9 -1 16 5
16 6 0 11 -6 12 -12 0 -9 2 -9 6 1 5 11 7 11 14 0 7 -11 9 -10 9 3 0 10 -13
33 -30 51 -33 38 -40 57 -12 36 15 -13 16 -12 3 3 -7 10 -17 16 -21 13 -11 -7
-47 38 -47 58 0 9 2 17 3 17 2 0 39 -40 83 -89 48 -54 82 -84 85 -76 6 16 -24
60 -33 48 -3 -5 -26 16 -50 46 -34 43 -37 49 -12 27 36 -34 42 -25 9 13 l-23
26 28 -24 c27 -25 38 -18 15 9 -7 8 2 2 20 -14 36 -34 43 -25 10 12 -13 14
-16 21 -8 17 8 -5 32 -28 54 -52 21 -24 41 -41 44 -38 3 3 -4 15 -15 28 -46
51 -33 48 25 -5 34 -31 75 -65 92 -75 16 -9 30 -21 30 -25 0 -4 5 -8 11 -8 6
0 30 -15 52 -33 39 -30 47 -32 127 -34 64 -1 75 0 45 6 -42 8 -71 22 -122 59
-17 12 -36 22 -42 22 -6 0 -11 3 -11 8 0 4 -15 16 -33 25 -19 10 -45 28 -58
40 -13 12 -44 38 -69 56 -59 45 -280 271 -280 286 0 7 -9 20 -20 30 -24 22
-120 165 -150 225 -12 25 -25 47 -29 50 -26 21 -161 371 -161 417 0 10 -4 23
-9 29 -5 5 -11 27 -14 49 -3 22 -12 87 -21 145 -8 58 -16 124 -16 146 0 39 2
42 33 47 17 2 34 3 36 1 1 -1 7 -58 12 -126 5 -68 13 -132 18 -143 5 -11 14
-49 20 -85 15 -91 34 -160 43 -160 5 0 8 -7 8 -16 0 -9 6 -30 14 -47 7 -18 20
-50 29 -72 33 -86 42 -105 48 -105 4 0 10 -11 13 -25 7 -28 66 -128 78 -133 4
-2 8 -10 8 -18 0 -8 6 -22 13 -30 6 -8 17 -20 22 -27 6 -7 43 -55 83 -108 133
-175 326 -342 527 -455 145 -82 149 -83 240 -75 l80 7 -39 17 c-21 9 -42 17
-47 17 -5 0 -9 5 -9 10 0 6 -8 10 -17 10 -10 0 -30 6 -45 14 -117 61 -154 81
-158 87 -3 3 -30 21 -60 40 -30 18 -57 36 -60 39 -3 3 -32 27 -66 52 -111 85
-266 246 -339 355 -22 32 -43 60 -47 61 -5 2 -8 8 -8 13 0 6 -15 34 -34 63
-36 57 -116 218 -116 235 0 5 -4 11 -8 13 -4 2 -16 30 -26 63 -9 33 -24 83
-32 110 -28 95 -55 251 -61 355 -5 98 -4 106 16 124 21 19 21 19 21 -12 0 -19
5 -32 13 -32 7 0 13 -9 13 -20 0 -11 -7 -20 -16 -20 -13 0 -14 -11 -6 -85 8
-76 11 -85 28 -79 13 4 18 0 18 -15 0 -13 -6 -21 -16 -21 -13 0 -15 -7 -9 -42
4 -23 13 -60 19 -83 11 -35 16 -40 38 -37 22 2 25 -1 21 -18 -3 -11 -12 -20
-19 -20 -18 0 -18 -1 8 -81 20 -64 23 -67 45 -58 34 13 35 12 23 -11 -9 -16
-8 -20 5 -20 8 0 21 15 29 33 10 26 23 36 57 46 24 7 62 22 83 32 38 18 76 26
63 13 -3 -4 -2 -15 4 -25 7 -13 6 -19 -2 -19 -6 0 -27 -7 -47 -16 -121 -52
-112 -50 -112 -29 0 23 -19 18 -29 -8 -5 -13 -23 -30 -40 -37 -34 -14 -40 -39
-16 -64 8 -8 15 -24 15 -35 0 -12 4 -21 9 -21 5 0 12 -11 15 -24 7 -27 36 -44
36 -21 0 8 6 15 14 15 7 0 34 12 60 26 l46 26 0 -24 c0 -18 -11 -28 -56 -47
-53 -23 -56 -26 -50 -53 3 -16 13 -36 21 -45 9 -8 22 -27 30 -43 14 -27 45
-48 45 -30 0 10 86 70 101 70 5 0 9 -9 9 -20 0 -11 -4 -20 -10 -20 -5 0 -20
-9 -32 -20 -13 -10 -32 -26 -42 -33 -18 -14 -19 -16 -4 -38 8 -13 27 -37 42
-52 14 -15 26 -32 26 -36 0 -25 31 -14 70 25 48 48 48 48 69 35 11 -7 3 -20
-40 -60 l-54 -50 48 -46 c26 -25 51 -45 56 -45 5 0 11 -6 13 -12 5 -13 88 67
88 84 0 4 7 8 15 8 20 0 19 -26 -2 -49 -10 -10 -28 -31 -41 -47 l-24 -27 29
-26 c15 -15 41 -35 57 -45 30 -19 30 -19 50 6 50 61 56 69 56 77 0 5 7 16 15
24 8 8 29 40 48 70 33 55 33 55 56 38 21 -16 22 -19 7 -34 -9 -8 -16 -20 -16
-26 0 -6 -4 -11 -10 -11 -5 0 -10 -7 -10 -15 0 -8 -4 -15 -9 -15 -5 0 -14 -13
-21 -30 -7 -16 -23 -42 -37 -57 -25 -29 -57 -83 -51 -87 2 -2 33 -19 69 -40
62 -34 102 -46 96 -28 -1 6 29 85 39 100 1 2 11 1 22 -2 18 -6 18 -8 -4 -52
-13 -26 -29 -52 -35 -60 -9 -11 1 -19 52 -43 94 -43 101 -43 116 4 7 22 16 48
19 58 4 9 15 17 25 17 23 0 23 2 -1 -60 -11 -28 -20 -57 -20 -64 0 -18 76 -38
125 -34 38 3 39 4 50 52 7 36 15 50 29 52 16 2 17 -2 12 -29 -14 -74 -22 -67
79 -67 l75 0 0 30 c0 24 4 30 21 30 16 0 20 -5 17 -27 l-3 -28 180 -1 c99 -1
252 -5 341 -8 167 -8 171 -7 279 39 17 7 41 16 54 20 71 21 360 189 391 226 3
3 34 30 70 60 36 29 79 67 95 84 88 92 144 158 194 230 30 44 58 82 61 85 4 3
26 46 50 95 24 50 46 92 50 95 10 8 80 201 80 221 0 10 4 20 9 23 5 3 12 23
15 43 13 71 28 116 34 106 4 -6 7 14 8 45 1 32 5 110 10 176 8 98 7 119 -4
124 -8 3 -67 2 -132 -1 -146 -7 -160 -4 -160 36 l0 30 159 -7 159 -7 -9 43
c-4 24 -8 60 -9 81 l0 38 -85 -7 c-73 -6 -85 -5 -85 9 0 12 18 17 81 22 l81 7
-6 57 c-4 31 -9 69 -12 85 l-6 28 -67 -7 c-36 -4 -70 -11 -75 -16 -17 -16 -28
-10 -24 14 3 19 11 23 68 30 94 11 92 9 74 59 -8 24 -22 58 -30 77 -14 30 -19
32 -46 27 -17 -3 -41 -6 -54 -6 -15 0 -24 -6 -24 -15 0 -22 -27 -19 -33 4 -4
15 4 20 49 30 77 18 82 28 49 106 -16 36 -31 65 -36 65 -4 0 -5 10 -3 23 4 22
4 22 -7 1 -11 -22 -68 -54 -94 -54 -8 0 -15 -5 -15 -11 0 -5 -4 -7 -10 -4 -23
14 -7 35 45 59 40 18 55 30 55 45 0 10 -3 21 -7 23 -10 4 -52 76 -60 101 -5
17 -23 24 -23 9 0 -5 -17 -17 -37 -28 -21 -10 -40 -22 -43 -25 -3 -3 -39 -29
-80 -57 l-75 -52 -17 22 c-15 21 -15 23 3 33 30 16 136 87 185 123 l45 34 -28
36 c-15 21 -31 39 -35 40 -4 2 -8 10 -8 18 0 20 -42 18 -61 -3 -35 -39 -71
-65 -80 -56 -14 14 1 45 17 39 8 -3 13 -2 11 2 -1 4 14 22 33 40 21 19 31 35
25 39 -5 5 -31 31 -57 60 l-48 52 -45 -44 c-25 -25 -45 -49 -45 -55 0 -14 -16
-12 -29 4 -9 10 -1 24 34 62 25 26 45 53 45 58 0 6 -28 33 -62 60 -61 49 -62
49 -76 28 -7 -11 -25 -33 -38 -49 -13 -15 -24 -31 -24 -35 0 -11 -28 -10 -34
1 -3 5 8 23 24 41 17 18 30 38 30 46 0 8 5 14 10 14 17 0 11 37 -7 44 -18 5
-30 12 -86 50 -15 10 -31 16 -34 12 -9 -8 -30 -46 -48 -83 -16 -35 -22 -38
-43 -24 -10 6 -9 15 5 41 10 19 26 43 36 54 9 11 17 25 17 30 0 13 -135 79
-151 74 -6 -2 -24 -39 -41 -83 -43 -115 -71 -175 -83 -175 -5 0 -17 4 -25 9
-15 10 -15 11 62 177 35 78 36 102 3 110 -14 3 -23 9 -21 13 2 3 -8 7 -22 8
-15 0 -39 4 -54 8 -25 7 -28 5 -28 -19 0 -15 -5 -47 -11 -72 -8 -32 -16 -44
-30 -44 -23 0 -23 0 -4 70 22 82 21 88 -22 95 -21 3 -57 9 -79 14 l-42 8 -6
-36 c-3 -20 -6 -47 -6 -61 0 -34 -13 -52 -32 -45 -12 5 -13 17 -6 72 5 36 6
69 1 73 -4 4 -43 11 -85 14 l-78 7 6 -30 c4 -17 3 -51 0 -76 -6 -35 -11 -45
-26 -45 -17 0 -18 6 -13 75 l6 75 -66 0 c-65 0 -250 -16 -295 -26 -18 -4 -21
-8 -13 -22 9 -16 32 -132 48 -232 5 -32 3 -35 -21 -36 -20 -2 -26 3 -26 18 0
11 -7 46 -15 77 -8 31 -15 73 -17 94 -1 21 -6 40 -10 43 -4 3 -5 11 -2 18 8
21 -13 29 -49 17 -17 -5 -52 -15 -76 -21 -25 -7 -40 -15 -34 -18 12 -8 47
-132 39 -139 -11 -11 -36 7 -36 26 0 11 -4 22 -9 25 -5 3 -12 22 -15 41 -4 19
-13 35 -20 35 -24 0 -140 -47 -144 -58 -2 -6 9 -36 23 -67 25 -52 28 -94 6
-81 -5 4 -22 33 -38 66 -15 33 -34 60 -41 60 -25 0 -132 -61 -132 -75 0 -9 17
-40 37 -71 30 -46 34 -57 22 -65 -20 -12 -29 -11 -29 4 0 7 -9 23 -20 35 -11
12 -20 24 -20 27 0 3 -7 17 -16 31 l-17 24 -33 -25 c-18 -14 -35 -25 -38 -25
-11 0 -56 -44 -56 -55 0 -6 18 -31 40 -55 38 -43 47 -69 24 -77 -5 -2 -28 21
-50 52 -21 30 -46 54 -54 54 -8 0 -33 -18 -55 -39 -22 -22 -43 -40 -47 -40
-25 0 4 -40 89 -123 96 -94 97 -96 79 -116 -18 -20 -19 -19 -117 81 -65 65
-104 98 -114 94 -8 -3 -15 -10 -15 -15 0 -6 -19 -29 -41 -52 l-41 -42 48 -43
c27 -24 52 -43 57 -44 8 0 10 -40 1 -40 -9 0 -66 40 -97 68 -27 25 -27 25 -45
6 -9 -10 -30 -38 -46 -61 -16 -24 -34 -43 -39 -43 -14 0 16 -24 80 -63 40 -25
50 -36 43 -47 -8 -13 -14 -12 -47 5 -21 11 -47 28 -58 38 -24 22 -36 18 -55
-19 -8 -16 -18 -30 -22 -32 -5 -2 -8 -12 -8 -22 0 -10 -4 -20 -9 -22 -4 -1
-11 -12 -15 -23 -5 -16 1 -23 29 -33 19 -6 51 -18 70 -24 38 -14 39 -16 26
-37 -7 -11 -19 -10 -67 10 -33 13 -62 27 -65 32 -3 4 -10 2 -16 -5 -19 -24
-55 -128 -50 -141 3 -8 35 -23 71 -33 69 -20 71 -21 57 -43 -7 -11 -19 -10
-72 8 -35 11 -66 21 -69 21 -4 0 -15 -28 -25 -62 -9 -35 -19 -67 -20 -73 -2
-5 -4 0 -4 12 -1 12 -6 23 -13 25 -9 3 -9 16 1 54 14 55 102 296 110 304 4 3
24 40 45 83 21 42 42 77 45 77 4 0 15 17 26 38 11 20 26 43 32 50 7 7 13 17
13 20 0 4 10 18 23 32 12 14 35 42 51 63 33 45 173 186 236 239 51 43 127 98
135 98 3 0 16 10 31 23 46 40 254 149 310 163 16 4 34 10 39 14 18 14 157 56
255 78 224 51 493 53 715 6 66 -14 131 -28 145 -30 14 -3 34 -9 45 -14 11 -5
40 -15 65 -24 88 -29 165 -59 170 -66 7 -10 94 -50 108 -50 7 0 12 -4 12 -9 0
-5 15 -16 34 -25 80 -38 305 -218 380 -305 12 -13 32 -36 46 -51 76 -84 90
-100 90 -109 0 -4 7 -14 16 -22 8 -7 13 -20 11 -30 -3 -10 0 -16 7 -13 6 2 30
-24 53 -59 51 -79 153 -284 153 -308 0 -10 5 -21 10 -24 6 -4 8 -15 5 -26 -4
-11 -2 -19 4 -19 6 0 11 -7 11 -15 0 -8 3 -15 8 -15 17 0 47 -127 73 -304 18
-124 6 -469 -21 -576 -11 -47 -25 -105 -30 -130 -12 -51 -57 -182 -77 -220 -7
-14 -13 -33 -13 -42 0 -10 -4 -18 -9 -18 -5 0 -12 -14 -16 -30 -4 -17 -12 -36
-18 -43 -19 -21 -37 -56 -37 -72 0 -8 -4 -15 -8 -15 -7 0 -46 -59 -46 -70 0
-3 -6 -11 -13 -19 -8 -8 -22 -26 -31 -40 -21 -33 -46 -63 -99 -122 -24 -25
-43 -49 -43 -52 0 -11 -59 -67 -70 -67 -5 0 -10 -7 -10 -15 0 -8 -3 -15 -8
-15 -4 0 -27 -19 -52 -42 -25 -22 -79 -65 -120 -94 -41 -30 -81 -58 -88 -64
-6 -6 -34 -22 -62 -36 -27 -13 -55 -30 -62 -37 -20 -18 -121 -67 -140 -67 -9
0 -19 -4 -23 -9 -3 -5 -19 -12 -35 -16 -52 -11 -33 -22 48 -28 73 -5 81 -4
147 29 39 18 101 54 138 79 37 25 70 45 73 45 7 0 88 63 92 73 2 4 8 7 13 7
14 0 239 213 239 227 0 3 8 13 18 22 28 26 96 112 130 166 17 28 36 55 41 62
17 19 131 247 131 261 0 6 5 12 10 12 6 0 10 11 10 25 0 14 4 25 9 25 5 0 12
15 16 33 9 44 36 138 46 162 5 11 13 47 18 80 6 33 15 86 20 118 5 31 13 166
16 300 7 238 7 244 -19 346 -14 57 -26 111 -26 120 0 9 -13 29 -30 44 -16 16
-30 36 -30 44 0 20 -29 122 -41 145 -5 10 -9 25 -9 33 0 8 -3 15 -8 15 -6 0
-26 49 -35 85 -1 6 -15 27 -30 46 -15 20 -27 41 -27 47 0 7 -4 12 -10 12 -5 0
-12 11 -16 25 -3 14 -9 25 -13 25 -3 0 -17 18 -31 40 -14 22 -28 40 -32 40 -5
0 -8 5 -8 11 0 27 -151 197 -261 294 -42 38 -155 125 -190 147 -14 9 -33 23
-41 30 -26 24 -216 121 -315 161 -71 29 -214 72 -288 87 -27 6 -59 12 -70 15
-126 29 -473 34 -623 10 -198 -32 -423 -107 -581 -192 -78 -42 -272 -169 -320
-210 -71 -60 -209 -201 -266 -273 -33 -41 -63 -77 -66 -80 -11 -9 -89 -140
-89 -149 0 -5 -4 -11 -8 -13 -23 -9 -137 -267 -167 -376 l-11 -44 -29 38 -29
37 23 66 c22 62 154 343 173 366 5 5 21 29 36 51 32 50 59 85 132 173 30 36
62 75 70 85 8 10 26 28 39 40 13 12 40 36 60 55 44 40 169 142 192 156 10 6
38 25 64 43 25 17 48 32 51 32 3 0 28 15 57 33 190 120 496 219 767 247 128
13 377 4 515 -20z m-2515 -302 c5 -24 15 -57 20 -74 13 -41 13 -44 -8 -44 -15
0 -105 -25 -262 -74 -25 -8 -67 -19 -95 -26 -27 -7 -90 -25 -140 -40 -82 -26
-243 -73 -415 -120 -36 -10 -112 -32 -169 -49 -112 -34 -135 -37 -129 -20 2 6
62 35 133 64 72 29 150 61 175 72 25 12 56 24 70 28 26 8 67 24 135 55 77 35
296 120 310 120 7 0 15 3 17 8 2 4 53 26 113 50 61 24 124 49 140 56 55 24 80
35 87 35 4 1 12 -18 18 -41z m4313 6 c69 -16 116 -33 90 -34 -6 0 -42 7 -80
16 -91 23 -250 22 -328 0 -33 -9 -92 -33 -130 -51 -78 -38 -205 -137 -205
-160 0 -8 -4 -15 -10 -15 -5 0 -10 -7 -10 -15 0 -8 3 -15 8 -15 10 1 42 26 42
34 0 11 54 62 73 69 9 3 17 11 17 17 0 5 7 10 15 10 8 0 15 4 15 8 0 14 73 51
157 79 66 23 95 27 193 27 63 0 135 -6 160 -13 59 -16 200 -82 200 -93 0 -4 6
-8 14 -8 22 0 30 -19 16 -35 -9 -11 -9 -15 -1 -15 6 0 11 5 11 10 0 23 26 6
82 -52 110 -115 186 -316 173 -458 -10 -108 -24 -160 -45 -160 -10 0 -27 -10
-37 -23 -10 -12 -27 -29 -39 -37 -62 -43 -194 -176 -194 -194 0 -23 -22 -36
-109 -67 -66 -23 -64 -23 -51 2 7 13 17 18 27 15 13 -5 14 -4 4 8 -13 15 -7
34 42 138 19 42 28 50 72 65 28 9 53 16 58 15 4 -1 7 2 7 7 0 5 11 13 24 18
14 4 54 36 90 70 40 38 71 60 80 57 8 -3 16 -1 19 3 3 5 -6 9 -19 8 -15 0 -40
-15 -63 -38 -21 -20 -40 -34 -44 -31 -3 3 -12 -3 -19 -15 -7 -12 -17 -21 -21
-21 -5 0 -20 -9 -35 -20 -73 -58 -262 -80 -402 -47 -88 21 -112 33 -92 45 10
7 10 11 -3 22 -8 7 -18 10 -22 6 -3 -3 -1 -6 5 -6 20 0 13 -14 -12 -26 -23
-11 -24 -10 -23 25 1 33 -20 99 -34 111 -11 9 -29 72 -23 81 3 5 -1 7 -8 4 -8
-3 -24 17 -43 57 -16 34 -43 78 -58 97 -16 20 -36 49 -44 65 -15 29 -24 40
-93 115 -22 24 -40 47 -40 52 0 5 -9 9 -20 9 -69 0 37 134 165 209 141 82 334
112 498 75z m-2322 -244 c-71 -11 -91 -30 -30 -30 93 0 114 -23 55 -59 -35
-22 -136 -30 -136 -11 0 6 -7 10 -15 10 -22 0 -30 27 -14 46 26 32 83 53 139
52 l55 0 -54 -8z m422 -245 c187 -39 389 -135 502 -239 28 -25 56 -44 62 -41
7 2 12 1 10 -4 -1 -5 24 -37 55 -73 114 -128 196 -272 244 -425 7 -24 10 -43
5 -43 -4 0 -13 23 -20 50 -15 57 -99 236 -107 227 -3 -3 9 -33 27 -68 38 -77
79 -183 79 -207 0 -9 -13 19 -28 63 -31 88 -71 168 -72 145 0 -8 -10 0 -21 18
-12 18 -24 31 -26 28 -3 -3 4 -20 15 -38 22 -35 76 -166 86 -208 3 -14 3 -19
0 -11 -5 10 -8 10 -14 1 -5 -8 -12 1 -20 26 -45 140 -210 398 -242 378 -6 -4
-8 -3 -5 3 9 14 -15 40 -98 107 -38 31 -74 59 -80 64 -5 4 -25 17 -42 27 -18
11 -28 22 -22 26 6 3 -14 18 -43 33 -29 15 -44 24 -33 20 73 -23 42 -1 -55 41
-21 9 -25 12 -10 9 14 -3 54 -19 89 -35 35 -16 66 -27 69 -24 3 3 -28 20 -69
40 -75 35 -89 48 -22 20 20 -8 38 -13 40 -11 9 8 -92 48 -182 71 -254 68 -514
48 -752 -56 -97 -43 -219 -116 -210 -126 3 -3 19 4 36 16 21 15 30 18 33 9 3
-9 13 -7 34 6 24 16 26 16 15 3 -19 -23 -16 -22 74 24 69 36 80 48 21 23 -14
-5 -17 -4 -12 4 10 16 -4 14 -34 -4 l-25 -15 28 6 c36 7 35 0 -3 -14 -18 -6
-28 -6 -25 -1 9 15 -8 12 -33 -6 -13 -9 -25 -14 -28 -11 -7 7 51 39 147 80 90
38 226 77 269 76 14 0 -14 -9 -61 -19 -81 -18 -232 -70 -225 -78 3 -2 44 10
93 27 136 47 256 64 403 58 69 -3 149 -10 178 -17 86 -19 52 -23 -44 -4 -69
13 -119 15 -219 10 -118 -5 -278 -32 -215 -35 15 -1 -8 -13 -60 -30 -91 -30
-204 -80 -197 -87 2 -2 33 9 68 25 162 73 362 110 524 97 81 -7 260 -44 252
-53 -3 -2 -32 3 -64 11 -233 61 -489 36 -719 -69 -93 -42 -243 -154 -319 -237
-52 -58 -165 -217 -165 -234 0 -4 -13 -34 -29 -68 -16 -34 -39 -101 -52 -151
-21 -79 -24 -111 -23 -270 0 -166 3 -187 28 -270 30 -97 69 -191 101 -242 11
-17 31 -51 45 -74 26 -45 222 -249 238 -249 5 0 27 -14 48 -30 93 -75 286
-148 448 -170 44 -5 82 -13 85 -16 3 -4 -10 -4 -29 -1 -19 3 -62 8 -95 11
l-60 5 60 -13 c33 -8 50 -14 38 -15 -25 -1 -164 27 -172 35 -3 3 15 2 39 0
l45 -6 -50 15 c-59 17 -76 19 -55 4 18 -13 -17 -4 -69 17 -38 16 -63 18 -41 4
27 -17 2 -11 -56 15 -32 14 -59 24 -61 22 -5 -6 166 -84 215 -98 23 -7 40 -14
38 -17 -8 -7 -109 30 -200 74 -49 24 -91 42 -93 40 -8 -8 130 -76 211 -105 97
-34 217 -61 275 -61 22 0 42 -4 45 -9 12 -18 -176 12 -279 44 -221 71 -436
220 -569 394 -94 123 -172 293 -214 465 -13 55 -17 113 -16 251 0 163 3 189
27 276 30 108 45 148 89 234 137 269 367 469 653 568 88 30 141 42 280 61 54
8 244 -4 318 -19z m-2789 -31 c9 -3 16 -12 16 -20 0 -8 -6 -11 -15 -8 -11 5
-15 -1 -15 -24 0 -30 -2 -31 -39 -29 -22 2 -38 0 -35 -2 2 -3 -44 -15 -103
-28 -141 -30 -180 -40 -168 -42 6 -1 -30 -17 -79 -36 -50 -18 -95 -31 -100
-28 -6 4 -8 2 -3 -2 9 -11 -46 -35 -82 -36 -23 0 -24 -1 -6 -9 19 -8 19 -9 -2
-9 -13 -1 -23 -5 -23 -9 0 -4 -25 -19 -55 -32 -30 -13 -55 -27 -55 -30 0 -3
-15 -11 -32 -19 -18 -7 -39 -21 -46 -30 -11 -14 -14 -14 -22 -1 -8 13 -10 12
-10 -3 0 -11 -9 -21 -20 -24 -11 -3 -20 -10 -20 -15 0 -6 -9 -8 -20 -5 -12 3
-20 0 -20 -8 0 -15 -27 -28 -41 -19 -5 3 -20 -4 -34 -14 -17 -13 -21 -22 -13
-24 8 -3 2 -14 -17 -31 -20 -18 -25 -26 -15 -27 9 0 21 5 28 12 7 7 12 9 12 5
0 -4 9 1 19 11 42 37 53 44 67 38 21 -8 17 -28 -4 -22 -10 4 -27 -1 -38 -10
-18 -15 -18 -15 3 -5 33 17 39 13 15 -9 -12 -11 -26 -20 -32 -20 -5 0 -10 -4
-10 -10 0 -5 -7 -7 -15 -4 -10 4 -15 0 -15 -10 0 -13 6 -15 28 -10 15 4 32 11
37 18 6 6 28 20 50 31 22 11 42 23 45 26 9 10 70 19 70 10 0 -5 -12 -14 -27
-19 -17 -6 -21 -11 -11 -11 9 -1 20 -6 24 -12 5 -9 -1 -10 -22 -5 -21 5 -25 4
-14 -3 12 -8 9 -12 -17 -22 -18 -6 -30 -15 -27 -20 3 -5 0 -9 -5 -9 -6 0 -11
-4 -11 -10 0 -5 7 -10 15 -10 8 0 15 3 15 8 0 7 48 32 62 32 8 0 21 9 53 38
11 10 18 10 33 1 14 -9 23 -9 38 0 18 11 17 12 -3 6 -39 -11 -25 9 25 35 26
14 49 28 50 33 2 4 12 7 23 7 10 0 19 4 19 8 0 4 24 16 53 26 28 11 59 24 67
31 21 18 252 95 284 95 14 0 26 4 26 8 0 8 170 32 226 32 24 0 33 -5 37 -22 4
-12 4 -24 2 -26 -8 -8 -82 -22 -120 -22 -22 0 -47 -4 -55 -10 -28 -18 1 -23
69 -11 107 17 108 17 116 -29 4 -22 10 -40 15 -40 4 0 10 -19 13 -42 3 -24 10
-61 17 -83 6 -22 20 -76 30 -120 10 -44 23 -93 29 -108 6 -16 11 -48 11 -71
l0 -43 -81 -8 c-45 -3 -87 -9 -94 -11 -7 -3 -15 7 -19 26 -3 19 -11 30 -18 28
-9 -3 -14 -33 -16 -95 l-3 -91 -37 -28 c-20 -15 -39 -30 -42 -33 -9 -10 -98
-71 -104 -71 -3 0 -17 -11 -32 -25 -25 -23 -28 -23 -55 -10 -15 8 -35 15 -43
15 -8 0 -16 4 -18 9 -5 12 -78 56 -120 71 -31 12 -35 16 -25 29 10 12 9 14 -6
8 -10 -4 -28 -2 -39 4 -11 6 -22 8 -25 6 -7 -8 16 -47 28 -47 6 0 17 -7 25
-15 14 -13 13 -16 -10 -24 -13 -6 -55 -31 -91 -57 -52 -36 -69 -43 -76 -33 -4
7 -11 10 -16 6 -4 -5 -1 -12 7 -17 12 -8 11 -12 -10 -27 -13 -9 -42 -34 -63
-55 -31 -29 -41 -35 -51 -25 -15 15 -99 110 -151 170 -22 26 -66 75 -97 108
-32 34 -58 64 -58 67 0 3 -18 23 -40 44 -43 43 -48 55 -25 64 8 4 15 12 15 20
0 8 4 14 8 14 5 0 28 18 51 40 23 22 46 40 51 40 6 0 10 9 10 20 0 31 -26 24
-71 -17 -62 -58 -84 -69 -103 -54 -18 15 -21 31 -5 31 6 0 19 10 29 22 15 19
20 20 34 9 13 -11 18 -10 33 4 16 17 16 17 -6 10 -17 -5 -22 -4 -19 6 3 8 15
14 27 13 14 0 20 4 17 13 -3 7 1 13 9 13 9 0 12 6 9 15 -9 22 -30 18 -76 -15
-41 -30 -88 -40 -88 -19 0 7 11 9 28 5 15 -3 22 -3 15 0 -15 7 -5 34 13 34 8
0 14 4 14 9 0 5 10 11 23 15 18 5 20 8 7 16 -23 15 -35 12 -63 -14 -15 -14
-36 -27 -47 -31 -11 -3 -20 -11 -20 -16 0 -5 -5 -9 -11 -9 -6 0 -9 7 -6 14 4
10 1 13 -7 10 -8 -3 -16 4 -19 15 -7 28 35 55 71 46 25 -6 25 -5 9 7 -18 13
-17 15 8 26 29 13 27 27 -5 35 -15 4 -37 -9 -78 -44 -31 -27 -63 -49 -69 -49
-7 0 -13 -7 -13 -15 0 -8 -4 -15 -10 -15 -23 0 -7 31 29 57 21 15 72 55 113
88 40 33 89 72 108 85 19 13 40 29 46 35 31 28 55 45 63 45 4 0 16 9 26 20 10
11 24 20 32 20 7 0 13 5 13 10 0 6 7 10 14 10 8 0 27 11 42 25 14 13 42 30 60
37 19 7 34 16 34 21 0 5 7 7 15 3 8 -3 14 -1 12 3 -2 11 108 71 130 71 8 0 11
5 8 10 -3 6 3 10 15 10 11 0 43 11 70 25 27 14 56 25 65 25 8 0 15 3 15 8 0 9
72 32 100 32 11 0 20 5 20 10 0 6 11 10 24 10 14 0 28 5 31 10 3 6 19 10 34
10 15 0 41 5 57 10 16 6 63 14 104 19 101 11 116 12 134 5z m2699 -109 c175
-26 329 -90 462 -190 92 -70 110 -88 173 -165 29 -36 57 -71 63 -78 25 -30
129 -254 129 -278 0 -2 -7 -4 -16 -4 -10 0 -14 6 -10 15 3 8 1 15 -4 15 -6 0
-10 10 -10 21 0 20 -84 198 -98 209 -4 3 -20 25 -37 49 -60 89 -270 271 -312
271 -6 0 -13 4 -15 8 -6 17 -214 90 -285 101 -222 34 -446 0 -628 -96 -122
-64 -303 -221 -341 -296 -9 -18 -20 -34 -24 -37 -13 -9 -76 -133 -98 -193 -44
-118 -57 -195 -57 -347 0 -120 4 -162 24 -240 28 -109 95 -247 169 -347 156
-210 414 -356 674 -381 50 -5 65 -10 60 -19 -6 -10 -23 -10 -72 -3 -128 20
-207 43 -299 88 -124 60 -210 119 -288 200 -271 278 -362 664 -242 1026 27 82
85 198 120 243 16 20 29 39 29 43 0 12 132 145 180 181 25 18 51 40 58 47 20
19 187 97 262 122 71 24 208 48 283 49 26 1 93 -6 150 -14z m-2633 -25 c0 -11
-3 -20 -7 -20 -60 -2 -356 -62 -398 -81 -18 -8 -57 -22 -172 -61 -18 -6 -33
-15 -33 -20 0 -4 -11 -8 -25 -8 -14 0 -25 -5 -25 -11 0 -6 -12 -8 -32 -5 -24
4 -28 4 -13 -3 19 -8 18 -10 -8 -20 -16 -6 -32 -11 -37 -11 -5 0 -10 -3 -12
-7 -7 -17 -67 -43 -84 -36 -12 4 -15 3 -10 -5 4 -7 0 -15 -11 -19 -10 -4 -21
-11 -24 -16 -4 -5 -18 -9 -32 -9 -16 0 -24 -5 -21 -13 6 -14 -41 -29 -58 -19
-13 8 30 43 53 44 9 0 19 7 23 15 3 8 12 15 19 15 8 0 20 7 27 15 7 8 16 12
21 10 4 -3 11 0 16 7 10 16 56 40 69 36 5 -2 10 1 11 6 2 11 71 46 90 46 8 0
11 5 8 10 -3 6 0 10 7 10 7 0 26 7 43 16 16 8 40 13 52 9 16 -4 21 -1 18 7 -4
9 17 19 62 32 38 10 102 29 143 41 67 21 211 49 295 59 17 1 33 4 38 5 4 0 7
-8 7 -19z m-24 -87 c3 -19 -2 -22 -54 -26 -87 -7 -340 -62 -352 -77 -3 -3 -25
-12 -50 -20 -25 -7 -60 -22 -78 -33 -18 -10 -39 -16 -48 -13 -9 3 -12 2 -9 -4
4 -6 -7 -13 -24 -16 -17 -4 -31 -10 -31 -14 0 -4 -33 -24 -72 -44 -40 -20 -86
-45 -103 -56 -43 -28 -62 -25 -27 5 17 14 36 25 43 25 11 0 11 2 0 9 -10 7
-19 4 -27 -7 -10 -14 -15 -15 -25 -4 -11 10 -10 12 4 12 9 0 17 5 17 10 0 6
10 10 22 10 12 0 18 3 15 6 -7 8 107 64 129 64 9 0 12 5 9 10 -4 6 7 10 26 10
18 0 29 3 25 7 -7 7 127 63 151 63 7 0 13 4 13 8 0 4 28 14 63 22 34 7 69 17
77 21 8 4 42 13 75 19 33 7 83 18 110 25 75 19 117 15 121 -12z m427 -308
c-15 -33 -31 -62 -34 -65 -4 -3 -21 -29 -39 -58 -18 -29 -34 -51 -36 -49 -4 4
41 188 60 242 8 22 27 80 43 130 l28 90 3 -115 c3 -108 1 -119 -25 -175z
m3265 221 c12 -11 10 -14 -12 -20 -31 -8 -35 -26 -5 -26 35 0 18 -32 -26 -47
-46 -17 -144 -11 -156 9 -10 16 8 38 32 38 11 0 19 5 19 10 0 6 -7 10 -16 10
-27 0 -9 24 27 37 40 15 118 9 137 -11z m1042 -152 c0 -3 -7 -18 -15 -32 -17
-33 -50 -109 -59 -139 -12 -38 -35 -53 -82 -53 -24 0 -44 5 -44 10 0 6 4 10 8
10 5 0 9 6 9 13 0 7 19 51 43 99 39 77 47 87 74 91 55 7 66 7 66 1z m537 -63
c155 -31 196 -43 217 -63 11 -10 23 -18 28 -18 4 0 8 -7 8 -15 0 -17 -11 -20
-26 -6 -13 14 -255 61 -345 68 -50 4 -83 2 -98 -6 -20 -11 -47 -62 -106 -201
-13 -30 -33 -76 -44 -102 -18 -42 -21 -67 -20 -195 0 -101 3 -142 10 -128 8
17 8 16 3 -5 -3 -14 -12 -68 -19 -120 -21 -151 -35 -229 -64 -360 -15 -68 -92
-295 -102 -298 -4 -2 -5 -10 -2 -18 3 -8 0 -14 -6 -14 -6 0 -11 -6 -11 -14 0
-16 -109 -238 -121 -246 -4 -3 -11 -18 -14 -33 -4 -15 -10 -27 -14 -27 -3 0
-17 -17 -30 -38 -13 -20 -36 -55 -50 -77 -14 -22 -34 -49 -43 -59 -22 -25 -22
-28 1 -53 18 -18 18 -23 5 -48 -8 -15 -11 -31 -8 -36 3 -5 0 -9 -5 -9 -6 0
-11 -7 -11 -15 0 -25 -24 -17 -70 25 l-45 39 25 24 c30 29 60 65 60 72 0 2 18
28 40 57 22 29 40 58 40 63 0 6 13 25 29 42 16 18 34 46 41 63 7 18 19 29 28
28 8 -2 17 4 19 12 4 13 3 13 -6 0 -12 -17 -14 -6 -5 27 4 13 10 20 15 17 5
-3 9 2 9 10 0 13 15 48 88 206 46 101 106 307 136 472 32 171 48 538 25 538
-17 0 -6 158 13 198 9 17 20 46 23 64 4 17 16 40 26 52 23 24 25 40 4 32 -46
-17 11 34 73 66 23 12 50 30 60 40 21 22 84 19 239 -11z m-1209 -233 c2 -9 -6
-18 -20 -21 -13 -3 -55 -15 -93 -26 -39 -11 -100 -25 -135 -30 -36 -6 -126
-22 -200 -35 -74 -14 -187 -34 -250 -45 -522 -92 -481 -83 -478 -111 3 -22 7
-25 42 -23 21 2 86 14 145 28 58 13 221 50 361 81 305 68 311 69 375 82 28 6
78 17 113 26 34 8 62 11 62 7 0 -6 -85 -26 -540 -126 -58 -13 -207 -46 -332
-74 -125 -28 -230 -51 -232 -51 -4 0 -26 92 -26 109 0 5 19 11 43 14 37 4 216
36 457 82 41 8 165 30 275 49 272 48 313 56 365 71 52 15 64 14 68 -7z m741
-313 c-4 -165 -12 -327 -17 -360 -22 -129 -70 -323 -103 -412 -12 -32 -28 -76
-36 -98 -7 -22 -27 -67 -42 -100 -16 -33 -35 -75 -42 -92 -8 -18 -17 -33 -20
-33 -4 0 -9 -10 -13 -23 -6 -24 -149 -244 -207 -320 -85 -109 -336 -357 -361
-357 -10 0 -10 2 -1 8 27 17 213 196 213 205 0 6 -5 5 -12 -1 -15 -12 -70 -4
-62 9 3 5 14 4 25 -2 15 -8 24 -7 36 3 9 7 18 12 20 11 1 -2 2 0 1 5 -2 4 -7
6 -11 4 -5 -1 -6 2 -3 7 4 5 15 8 25 6 23 -4 34 8 170 181 5 6 21 30 36 55 16
24 31 46 35 49 21 15 193 355 206 406 4 16 10 34 14 39 5 6 13 30 19 55 7 25
18 61 25 80 19 49 53 207 71 325 15 99 31 472 19 448 -3 -8 -26 -13 -57 -13
-29 0 -90 -5 -136 -10 -47 -5 -86 -8 -88 -7 -1 2 -7 31 -11 65 l-9 62 33 0
c18 0 40 3 49 6 25 10 -2 24 -47 24 -21 0 -38 5 -38 10 0 6 24 10 54 10 64 0
188 22 236 43 19 8 35 14 35 13 1 -1 -2 -136 -6 -301z m583 267 c18 -6 45 -13
61 -16 22 -5 27 -12 27 -37 0 -17 -5 -40 -11 -51 -10 -18 -17 -20 -72 -14 -85
9 -217 38 -217 49 0 4 -4 5 -10 2 -6 -4 -10 8 -10 29 0 20 5 36 10 36 6 0 10
8 10 18 0 17 5 18 90 6 49 -7 104 -17 122 -22z m-2760 -22 c61 -23 114 -68
154 -131 23 -37 28 -57 32 -130 4 -77 2 -90 -23 -138 -71 -141 -217 -203 -364
-155 -123 40 -213 180 -199 308 7 56 47 144 84 180 81 80 209 107 316 66z
m1289 -228 c25 -21 21 -48 -8 -59 -10 -3 -25 -12 -34 -20 -16 -14 -160 -32
-147 -19 3 4 29 9 55 10 27 2 58 8 69 14 16 10 13 11 -22 12 -69 0 -104 11
-104 30 0 33 32 47 116 49 37 1 58 -4 75 -17z m-3671 -387 c6 -55 20 -142 32
-194 16 -77 17 -95 6 -102 -7 -5 -16 -9 -19 -9 -11 0 -206 391 -233 467 l-25
73 77 49 c42 27 91 64 107 81 l30 31 7 -148 c4 -81 12 -193 18 -248z m1921
343 c2 -30 10 -75 18 -100 8 -23 6 -28 -17 -37 -15 -6 -49 -15 -77 -21 -27 -5
-90 -19 -139 -30 -50 -11 -95 -20 -101 -20 -6 0 -17 28 -24 63 -7 34 -15 70
-17 79 -4 13 5 18 43 24 26 3 102 17 168 29 148 28 145 28 146 13z m-2205
-178 c20 -42 30 -62 55 -107 10 -18 19 -40 19 -48 0 -8 5 -15 10 -15 6 0 10
-6 10 -14 0 -8 14 -40 30 -71 17 -31 30 -61 30 -66 0 -15 43 -104 52 -107 4
-2 8 -12 8 -22 0 -10 6 -25 13 -32 6 -7 25 -39 41 -71 16 -31 39 -67 52 -80
13 -12 24 -28 24 -34 0 -7 7 -13 15 -13 8 0 15 -6 15 -14 0 -8 27 -27 60 -42
38 -17 65 -36 73 -53 8 -14 30 -57 50 -96 21 -38 37 -73 37 -76 0 -4 -11 -6
-25 -6 -16 0 -39 14 -63 37 -53 53 -137 75 -184 48 -34 -20 -68 -59 -76 -87
-9 -34 -9 -199 1 -233 5 -20 4 -28 -6 -28 -7 0 -45 -11 -85 -24 l-73 -24 -15
30 c-8 16 -12 33 -9 38 3 6 2 10 -4 10 -6 0 -13 11 -17 25 -3 14 -10 25 -15
25 -5 0 -9 11 -9 25 0 14 -4 25 -9 25 -5 0 -11 10 -14 21 -4 16 1 28 19 41 13
11 31 26 38 34 8 8 20 14 26 14 16 0 68 58 80 88 12 28 1 114 -14 109 -6 -2
-9 -23 -7 -50 1 -28 -2 -47 -8 -47 -6 0 -8 -6 -5 -14 6 -15 -40 -57 -95 -86
-64 -34 -80 -52 -74 -82 3 -15 9 -25 14 -22 5 3 9 -1 9 -8 0 -7 18 -49 40 -93
44 -89 46 -95 26 -95 -8 0 -16 -7 -20 -15 -3 -8 -12 -15 -21 -15 -8 0 -15 -3
-15 -7 0 -5 -13 -15 -29 -24 l-29 -17 -31 44 c-17 25 -31 48 -31 53 0 4 -13
21 -28 38 -25 25 -62 86 -62 101 0 2 7 2 14 -1 10 -4 13 -1 10 7 -3 8 10 23
33 37 21 13 40 27 41 31 2 4 8 8 13 8 6 0 36 17 67 38 31 20 74 46 95 56 41
21 48 36 17 36 -17 0 -19 3 -11 18 11 20 16 90 8 112 -3 8 -11 43 -17 78 -7
34 -17 62 -21 62 -5 0 -9 7 -9 15 0 14 -18 53 -30 65 -3 3 -25 43 -49 89 -24
47 -59 106 -77 133 -19 26 -34 52 -34 58 0 5 -3 10 -7 10 -5 0 -16 18 -27 39
-26 56 -141 172 -203 207 -76 42 -65 52 12 11 78 -42 96 -31 25 15 -44 29 -62
48 -45 48 6 0 57 -31 65 -40 3 -3 17 -13 33 -23 15 -10 27 -24 27 -33 0 -8 4
-13 8 -10 18 11 172 -167 172 -198 0 -17 2 -18 10 -6 8 13 10 12 10 -2 0 -10
4 -18 9 -18 15 0 21 -43 8 -59 -10 -14 -10 -14 4 -3 14 10 20 6 43 -28 14 -22
26 -46 26 -55 0 -8 5 -15 10 -15 6 0 10 -7 10 -15 0 -8 5 -15 10 -15 6 0 10
-11 10 -24 0 -13 4 -26 8 -28 11 -4 72 -130 72 -148 1 -16 23 -50 34 -50 28 0
-21 135 -100 275 -9 17 -22 39 -27 50 -40 76 -60 111 -68 116 -5 3 -7 13 -3
22 3 9 11 14 17 10 6 -4 7 -1 2 7 -6 10 -11 9 -22 -5 -7 -11 -14 -16 -14 -12
-1 4 -2 11 -3 17 -1 11 -61 84 -93 113 -13 11 -23 27 -23 34 0 7 -4 13 -9 13
-5 0 -27 17 -48 38 -51 47 -63 56 -100 75 -27 14 -62 47 -51 47 3 0 29 -13 59
-29 86 -45 95 -46 142 -14 23 15 44 31 45 36 2 4 8 7 14 7 5 0 15 6 23 13 30
28 56 47 65 47 6 0 11 6 11 13 1 6 5 -15 10 -48 4 -33 16 -76 25 -95z m5669
-470 c-71 -15 -193 -44 -270 -65 l-140 -37 -180 -320 c-99 -175 -192 -340
-207 -366 -34 -60 -69 -89 -116 -98 -25 -5 -55 -24 -95 -60 -32 -30 -64 -54
-70 -54 -7 0 -23 -3 -37 -6 -14 -2 -6 3 17 13 23 10 64 40 92 66 27 26 58 47
70 47 29 0 71 22 97 52 12 12 59 91 104 173 46 83 110 194 142 248 32 54 58
99 58 101 0 6 111 200 119 208 8 9 143 46 306 85 155 36 176 41 210 41 17 0
-28 -12 -100 -28z m-5031 -561 c-2 -4 -56 -24 -119 -45 -63 -20 -115 -41 -115
-46 0 -4 -8 -8 -17 -8 -10 0 -36 -7 -58 -15 -54 -19 -62 -18 -60 5 2 28 10 34
90 60 39 13 74 27 80 32 5 4 17 8 26 8 10 0 19 3 21 8 2 4 30 16 63 28 l60 20
17 -20 c9 -11 15 -24 12 -27z m66 -87 c0 -4 -28 -15 -62 -25 -35 -10 -83 -24
-107 -31 -25 -7 -47 -18 -49 -24 -2 -7 -10 -12 -17 -12 -7 0 -26 -7 -41 -15
-37 -19 -75 -19 -121 0 -30 13 -33 17 -23 30 7 8 25 15 40 15 16 0 30 3 32 8
2 4 35 18 73 31 39 13 86 30 105 39 19 8 55 21 80 28 43 11 46 11 68 -13 12
-13 22 -27 22 -31z m-1045 -126 c32 -15 76 -28 99 -30 51 -3 76 -14 76 -32 0
-15 37 -73 55 -86 7 -5 6 -14 -1 -25 -13 -21 -61 -22 -145 -3 -53 11 -58 11
-92 -11 -36 -24 -36 -24 -30 -81 7 -68 -13 -181 -36 -201 -9 -8 -60 -33 -113
-57 -54 -23 -98 -44 -98 -47 0 -16 35 -32 95 -41 l70 -11 -75 5 c-74 4 -120
23 -120 47 0 6 40 30 87 52 152 70 147 66 160 115 14 57 17 164 3 155 -5 -3
-10 -1 -10 4 0 6 -13 23 -29 38 -102 97 -118 100 -238 44 -48 -23 -95 -46
-104 -51 -9 -5 -19 -7 -22 -4 -9 9 16 89 40 125 29 43 110 98 173 116 70 20
185 10 255 -21z m1196 -65 c18 -22 37 -37 41 -35 4 3 5 -2 2 -10 -3 -9 -2 -16
3 -16 5 0 9 -10 8 -22 -1 -13 -7 -23 -12 -23 -6 0 -15 -3 -19 -7 -4 -5 -14 -8
-23 -9 -9 0 -42 -32 -74 -70 -81 -96 -108 -108 -264 -115 -71 -4 -141 -6 -158
-6 l-30 0 29 -10 c21 -8 25 -13 15 -19 -25 -16 -49 -9 -60 15 -9 19 -21 25
-63 29 -28 3 -56 1 -62 -4 -6 -5 -14 -6 -17 -2 -4 3 -7 2 -7 -4 0 -6 -11 -14
-25 -17 -14 -4 -25 -11 -25 -16 0 -6 -6 -10 -13 -10 -14 0 -97 129 -97 150 0
6 -4 8 -10 5 -6 -4 -10 8 -10 28 0 29 8 42 51 80 40 36 54 43 64 34 7 -7 11
-17 8 -23 -2 -7 0 -15 6 -19 6 -3 11 -15 11 -26 0 -10 4 -19 8 -19 4 0 18 -20
30 -45 14 -29 28 -45 39 -44 17 1 17 2 0 6 -9 2 -15 8 -12 13 3 5 2 17 -3 27
-6 10 -16 32 -23 48 -7 17 -19 37 -25 45 -7 8 -15 26 -19 40 -6 23 -1 27 67
53 40 15 79 27 86 27 7 0 12 -15 13 -37 0 -31 2 -34 9 -18 5 11 9 14 9 7 1 -7
7 -20 14 -27 6 -8 23 -30 37 -49 14 -20 33 -38 43 -41 9 -4 17 -12 17 -18 0
-14 61 -43 113 -52 46 -9 94 11 109 47 7 15 15 25 18 23 3 -1 6 18 7 42 2 42
1 44 -12 27 -8 -10 -15 -24 -15 -30 0 -7 -12 -26 -27 -43 -30 -34 -69 -40
-116 -18 -31 14 -34 22 -11 31 8 3 13 10 10 15 -3 5 -2 19 2 31 6 16 30 29 95
51 48 16 92 27 97 24 5 -3 6 -28 3 -55 -7 -57 0 -63 22 -19 13 24 14 37 6 61
-13 37 -15 34 29 46 61 18 75 14 111 -27z m3469 -204 c0 -59 -12 -67 -103 -67
-45 0 -88 4 -95 8 -9 6 10 28 64 75 l78 67 28 -27 c18 -17 28 -37 28 -56z
m-4301 -119 c16 -28 39 -57 51 -63 18 -10 -1 -16 -127 -42 -81 -17 -150 -29
-152 -27 -3 2 7 17 21 32 14 15 37 44 51 65 28 43 82 86 109 87 11 0 29 -20
47 -52z m2729 -88 c31 -11 59 -25 60 -30 2 -6 7 -8 12 -5 11 7 69 -52 80 -81
22 -58 7 -90 -76 -155 -30 -23 -144 -49 -219 -49 -68 0 -195 30 -223 52 -81
64 -95 97 -67 157 18 42 92 93 167 116 67 21 198 19 266 -5z m-631 -15 c45
-19 58 -19 78 1 9 9 18 15 20 12 10 -10 15 -128 5 -128 -5 0 -10 6 -10 13 0 8
-21 25 -47 38 -40 20 -61 24 -142 24 -84 0 -100 -3 -128 -23 -58 -41 -58 -147
0 -182 37 -23 148 -27 225 -9 53 13 112 52 112 75 0 7 5 14 11 14 17 0 4 -66
-18 -87 -10 -10 -40 -30 -68 -43 -45 -22 -63 -24 -185 -25 -122 0 -140 2 -190
25 -60 27 -78 41 -104 82 -64 99 121 226 332 227 43 1 87 -5 109 -14z m1320
-7 c126 -14 174 -45 159 -102 -6 -26 -67 -56 -111 -56 -14 0 -25 -4 -25 -10 0
-5 11 -10 24 -10 28 0 48 -17 82 -72 14 -21 35 -43 48 -48 51 -19 31 -26 -67
-22 -56 2 -107 5 -113 7 -6 2 -14 16 -17 32 -4 15 -15 43 -26 61 -20 31 -22
32 -94 32 l-74 0 5 -30 c2 -17 10 -30 18 -30 8 0 14 -4 14 -9 0 -5 16 -16 36
-26 20 -9 33 -19 31 -22 -3 -3 -90 -2 -194 3 -177 7 -186 8 -153 22 19 8 37
17 40 21 3 3 14 11 25 17 17 10 20 23 23 106 l3 95 -31 13 c-16 7 -30 16 -30
21 0 5 -9 9 -20 9 -11 0 -20 5 -20 11 0 13 320 4 467 -13z m553 -49 c107 -11
210 -21 227 -22 l33 -2 0 -77 0 -78 -31 33 c-17 17 -39 42 -49 54 -12 16 -32
24 -67 28 l-50 6 -7 -97 c-7 -97 -7 -97 21 -123 15 -15 40 -33 55 -40 16 -8
27 -16 25 -17 -2 -2 -92 6 -201 18 l-199 22 67 25 c50 20 66 31 67 46 0 11 4
55 8 98 3 43 3 81 -2 84 -14 8 -89 5 -96 -4 -3 -4 -28 -23 -55 -41 l-48 -33 5
33 c4 18 9 52 13 76 l7 43 41 -6 c22 -3 129 -14 236 -26z"/>
<path d="M6000 8681 c-143 -30 -175 -233 -58 -366 18 -21 25 -35 17 -35 -13 0
-89 -144 -89 -169 0 -6 -8 -11 -18 -11 -10 0 -26 -15 -36 -32 l-17 -33 21 28
c12 15 27 27 33 27 9 0 9 -2 1 -8 -6 -4 -24 -38 -39 -77 -15 -38 -36 -85 -46
-104 l-18 -33 -20 33 c-12 19 -21 47 -21 63 0 34 55 156 70 156 6 0 3 -11 -6
-25 -13 -20 -13 -25 -3 -25 8 0 21 5 29 11 13 9 12 10 -2 5 -21 -6 -23 4 -5
23 10 11 10 14 0 18 -19 7 -17 13 31 116 29 62 44 107 43 131 -1 20 -2 36 -3
36 -1 0 -8 -17 -15 -37 -6 -21 -29 -74 -50 -118 -113 -241 -119 -256 -119
-306 0 -27 3 -49 8 -49 4 0 16 -16 26 -35 30 -56 189 -195 223 -195 7 0 13 -4
13 -8 0 -9 20 -20 95 -52 28 -12 59 -25 70 -30 26 -11 107 -35 167 -49 58 -14
192 -14 237 -1 37 10 59 31 78 70 6 14 34 73 62 132 28 59 51 111 51 117 0 6
5 11 11 11 5 0 7 5 4 10 -3 6 -2 10 4 10 5 0 12 -6 15 -12 3 -7 4 0 1 15 -8
38 3 67 23 67 15 0 15 2 2 10 -8 5 -20 10 -27 10 -12 0 -57 -87 -69 -135 -3
-14 -10 -25 -15 -25 -5 0 -9 -6 -9 -13 0 -7 -22 -57 -49 -112 -59 -122 -70
-130 -192 -130 -48 0 -90 3 -93 6 -3 3 3 23 14 45 11 21 45 93 75 159 31 66
63 132 71 147 8 15 15 30 14 33 -1 21 3 25 28 26 15 0 23 2 17 4 -5 1 -38 11
-72 20 -35 10 -63 22 -63 28 0 5 7 7 15 3 45 -17 159 -28 258 -24 100 3 117 6
158 31 79 47 112 147 74 221 -19 36 -19 57 0 32 8 -11 15 -15 15 -9 0 6 -7 16
-15 23 -8 7 -15 9 -15 4 0 -4 -26 19 -58 52 -84 85 -170 148 -248 180 -21 9
-41 19 -44 23 -8 10 -79 41 -95 41 -8 0 -15 4 -15 8 0 5 -19 13 -42 19 -24 6
-74 20 -112 32 -76 22 -220 34 -276 22z m248 -52 c48 -12 90 -26 93 -31 3 -5
8 -9 10 -8 10 4 132 -51 126 -57 -1 -1 -32 8 -68 21 -41 14 -72 20 -84 15 -33
-13 -38 -10 -33 16 3 14 1 25 -3 25 -5 0 -9 -13 -9 -30 0 -16 -5 -30 -11 -30
-14 0 -7 -73 12 -117 16 -38 12 -43 -38 -50 -50 -7 -57 -15 -10 -11 46 3 65
-13 42 -36 -9 -9 -11 -16 -5 -16 6 0 13 7 16 15 4 8 10 12 15 9 5 -3 6 -11 2
-17 -14 -22 -12 -39 4 -33 8 3 20 6 26 6 8 0 7 4 -1 12 -14 14 -16 42 -2 33
15 -9 12 11 -4 24 -7 6 -22 8 -32 4 -17 -6 -17 -5 -5 10 15 20 31 13 75 -33
16 -16 57 -44 90 -61 92 -46 106 -55 101 -61 -3 -3 7 -5 22 -5 16 0 64 -9 108
-21 144 -36 154 -36 168 1 8 22 -12 64 -54 112 -17 19 -29 35 -25 35 9 0 45
-41 77 -87 30 -43 30 -43 13 -78 -24 -52 -43 -58 -158 -53 -82 4 -116 11 -181
36 -44 18 -84 32 -88 32 -17 0 -237 113 -237 122 0 4 -7 8 -15 8 -8 0 -15 5
-15 10 0 6 -5 10 -10 10 -28 0 -142 101 -137 121 2 8 2 11 0 7 -8 -14 -23 -9
-23 7 0 8 -4 15 -8 15 -9 0 -32 59 -32 83 0 9 5 17 10 17 6 0 10 6 10 13 0 39
140 47 268 16z m69 -626 c-3 -5 8 -8 23 -9 47 -2 60 -11 60 -44 0 -20 -9 -39
-25 -54 -14 -13 -25 -33 -25 -44 0 -11 -3 -22 -7 -24 -5 -1 -21 -34 -36 -73
-49 -120 -72 -164 -86 -165 -33 -1 -111 35 -111 52 0 9 3 18 8 20 9 4 56 102
71 151 7 20 17 37 22 37 5 0 9 5 9 12 0 6 9 30 19 52 11 23 25 53 30 69 7 17
18 27 31 27 12 0 19 -3 17 -7z"/>
<path d="M6853 7709 c-13 -7 -23 -16 -23 -21 0 -4 -7 -8 -16 -8 -9 0 -12 5 -8
13 5 7 1 7 -12 -3 -10 -8 -20 -15 -22 -16 -1 -1 37 -2 85 -3 208 -3 360 -40
543 -132 133 -66 168 -93 163 -124 -3 -14 -1 -25 5 -25 6 0 8 9 5 20 -3 11 0
20 6 20 6 0 11 -3 11 -7 0 -5 14 -16 31 -25 18 -11 27 -22 23 -29 -4 -7 -3 -9
4 -5 13 8 84 -52 76 -65 -3 -5 -10 -9 -15 -9 -6 0 -8 4 -4 9 5 10 -12 25 -30
26 -5 1 -9 6 -7 13 1 7 -2 12 -8 12 -5 0 -10 -5 -10 -11 0 -5 -5 -7 -12 -3 -7
5 -8 3 -4 -5 5 -7 10 -10 13 -7 3 3 17 -6 32 -20 14 -13 31 -22 37 -20 12 5
39 -33 30 -42 -4 -3 -12 1 -19 9 -6 8 -11 12 -10 10 2 -2 -2 -10 -8 -18 -8 -9
-8 -13 -1 -13 6 0 14 -9 17 -20 4 -11 11 -17 17 -14 6 4 5 10 -3 15 -12 8 -12
11 1 18 10 7 20 5 34 -7 18 -16 19 -16 13 1 -4 9 -4 17 0 17 3 0 12 -8 19 -17
13 -17 14 -17 8 -1 -3 10 -33 44 -65 75 -32 32 -59 62 -59 67 0 6 5 5 11 -1 6
-6 18 -9 25 -6 9 3 14 -2 14 -17 0 -11 4 -19 10 -15 5 3 7 12 3 20 -18 49 53
-18 105 -98 15 -23 31 -45 37 -50 6 -4 3 -11 -8 -18 -22 -13 -13 -29 13 -22
25 7 26 -5 3 -24 -17 -12 -16 -13 7 -11 20 3 29 -6 52 -47 16 -27 26 -58 24
-68 -2 -9 -1 -15 4 -12 15 9 84 -213 89 -285 1 -8 5 -42 10 -75 14 -91 13
-199 -4 -324 -8 -62 -17 -116 -19 -120 -3 -4 -8 -23 -11 -42 -11 -62 -35 -146
-50 -175 -8 -16 -15 -33 -15 -39 0 -21 -44 -114 -52 -109 -4 3 -5 -1 -2 -9 3
-8 -3 -28 -13 -45 -93 -159 -117 -197 -124 -200 -5 -2 -9 -8 -9 -13 0 -6 -14
-24 -30 -42 -17 -18 -38 -44 -48 -59 -18 -30 -28 -35 -35 -15 -2 6 -3 3 -1 -8
2 -12 -5 -26 -16 -33 -13 -8 -20 -23 -20 -42 0 -17 2 -30 5 -30 8 0 75 73 75
82 0 13 42 31 49 20 3 -5 15 -6 26 -1 19 7 19 8 -2 8 -13 1 -23 3 -23 6 0 15
32 65 41 65 8 0 8 -4 2 -12 -22 -28 -23 -48 -3 -48 11 0 20 5 20 11 0 5 -4 7
-10 4 -14 -9 -12 7 5 29 8 10 21 16 29 13 9 -4 18 -2 21 2 3 5 -9 8 -25 7 -17
-1 -30 -1 -30 0 0 8 86 140 92 142 5 2 5 9 1 15 -4 7 0 8 11 4 9 -4 14 -3 11
2 -6 10 11 56 30 81 6 8 24 49 40 90 16 41 32 80 37 86 14 20 66 239 78 334 7
52 16 116 20 141 7 45 1 117 -20 269 -18 122 -59 258 -111 365 -63 128 -74
146 -120 193 -14 15 -34 42 -43 60 -9 18 -35 51 -56 72 -27 27 -38 45 -34 57
5 15 4 16 -5 3 -10 -13 -13 -13 -24 0 -17 22 -159 130 -169 130 -5 0 -6 5 -3
10 3 6 -3 10 -13 10 -11 0 -25 7 -32 15 -7 8 -19 15 -27 15 -8 0 -11 5 -8 11
4 6 1 9 -6 8 -18 -3 -52 11 -61 25 -5 8 -8 7 -8 -1 0 -7 12 -20 28 -28 23 -14
24 -16 5 -12 -15 4 -23 0 -23 -9 0 -10 6 -11 26 -4 21 8 33 5 72 -22 59 -40
73 -54 64 -62 -3 -4 1 -4 11 0 11 4 19 0 23 -10 3 -9 12 -16 20 -16 7 0 17 -6
21 -13 4 -7 21 -22 36 -34 15 -12 23 -24 18 -27 -5 -4 -12 -2 -16 4 -8 13 -35
13 -35 0 0 -5 6 -7 14 -4 8 3 17 0 21 -5 3 -6 11 -9 16 -5 11 7 49 -23 49 -39
0 -6 -9 -2 -20 8 -20 18 -21 18 -14 -1 5 -15 4 -17 -6 -7 -7 6 -18 9 -24 7
-15 -6 -67 51 -58 62 4 4 2 4 -5 0 -11 -6 -33 7 -75 47 -10 9 -21 17 -25 17
-3 0 -20 11 -37 24 -74 56 -205 118 -320 152 -131 38 -274 53 -313 33z"/>
<path d="M6436 7501 c-4 -5 -3 -17 1 -27 5 -13 3 -16 -10 -11 -25 9 -47 -2
-47 -25 0 -22 -46 -93 -52 -81 -3 4 -3 2 -2 -5 2 -7 -10 -33 -26 -59 -17 -26
-30 -51 -30 -56 0 -5 -10 -23 -22 -39 -11 -17 -65 -117 -119 -224 -53 -106
-100 -190 -105 -186 -4 4 -4 2 -1 -5 8 -13 -41 -133 -55 -133 -5 0 -7 -4 -4
-8 3 -5 -4 -23 -14 -40 -11 -17 -16 -33 -12 -36 4 -2 29 42 56 100 32 69 54
104 65 104 11 0 13 3 4 8 -9 6 7 44 59 137 39 72 75 132 80 133 4 2 8 8 8 14
0 5 14 29 30 53 17 24 30 48 30 54 0 6 4 11 8 11 5 0 14 16 22 35 8 19 17 35
22 35 4 0 8 7 8 15 0 8 5 15 10 15 6 0 10 7 10 15 0 8 5 15 11 15 5 0 7 5 4
10 -3 6 -1 10 4 10 6 0 11 5 11 11 0 6 9 22 20 36 21 27 27 24 11 -6 -7 -13
-6 -18 3 -18 8 0 12 12 11 31 -2 35 4 58 14 52 3 -2 7 13 7 35 2 40 -1 46 -10
30z"/>
<path d="M6725 7440 l-110 -6 -60 -60 c-33 -32 -71 -75 -85 -94 -13 -19 -29
-38 -35 -42 -5 -4 59 -8 144 -8 84 0 170 -4 190 -9 20 -5 69 -15 109 -21 39
-7 72 -16 72 -21 0 -6 5 -7 11 -3 6 3 29 -2 52 -11 88 -38 153 -69 179 -87 28
-19 28 -19 61 6 19 14 39 26 45 26 27 0 60 -24 77 -57 18 -33 18 -36 2 -65
-16 -28 -16 -32 -2 -48 27 -30 16 -35 -14 -6 -16 16 -34 25 -40 21 -16 -9 -4
-25 18 -25 10 0 24 -7 31 -15 7 -8 16 -13 20 -10 14 9 97 -103 138 -187 48
-97 88 -224 102 -323 22 -158 4 -382 -40 -498 -11 -28 -20 -59 -20 -68 0 -9
-16 -46 -36 -83 -19 -37 -34 -69 -32 -71 2 -1 19 -5 40 -9 26 -5 40 -2 52 9
19 20 19 15 1 58 -21 50 -19 59 13 95 19 21 38 32 56 32 16 0 29 7 33 18 4 9
11 20 17 24 8 5 7 8 -1 8 -8 0 -9 9 -2 33 54 180 68 329 49 493 -21 186 -104
406 -206 552 -26 37 -39 60 -29 52 9 -7 31 -34 48 -59 17 -25 37 -52 43 -59 7
-6 16 -21 19 -32 3 -11 10 -20 15 -20 5 0 15 -18 21 -40 7 -22 15 -40 19 -40
6 0 22 -33 66 -138 8 -18 12 -37 9 -42 -3 -4 -1 -10 4 -12 20 -7 53 -211 54
-335 1 -67 3 -120 6 -118 6 7 17 333 10 329 -4 -2 -10 24 -13 58 -7 61 -41
174 -76 253 -9 22 -20 47 -24 55 -3 8 -15 29 -26 45 -11 17 -23 37 -27 45 -4
8 -15 24 -25 35 -10 10 -16 25 -13 33 2 7 1 11 -4 8 -5 -3 -22 11 -37 31 -48
63 -162 171 -222 210 -31 21 -59 40 -62 44 -7 9 -137 69 -150 69 -5 0 -10 4
-10 8 0 11 -119 38 -232 54 -51 7 -83 15 -75 20 6 4 8 7 2 6 -5 -1 -59 -4
-120 -8z"/>
<path d="M7950 7042 c0 -7 -5 -10 -12 -6 -7 4 -8 3 -4 -5 4 -6 12 -8 18 -5 6
4 9 1 6 -6 -7 -23 -24 -22 -36 2 l-12 23 6 -24 c4 -16 3 -21 -5 -17 -7 5 -8 1
-4 -10 4 -12 3 -15 -5 -10 -8 5 -10 1 -5 -10 5 -13 3 -15 -7 -9 -9 5 -11 4 -6
-4 9 -15 25 -5 36 23 9 20 9 20 9 1 1 -12 -4 -26 -11 -33 -9 -9 -9 -15 1 -24
10 -11 11 -10 6 3 -4 10 -2 20 3 23 6 3 15 -8 21 -26 14 -41 14 -41 -8 -35
-11 3 -22 -1 -24 -8 -4 -8 2 -10 18 -7 27 5 31 -1 40 -50 5 -26 3 -37 -7 -41
-7 -2 -6 -3 4 -2 13 2 18 -14 28 -97 15 -122 10 -419 -8 -440 -6 -8 -9 -17 -6
-21 7 -6 -41 -207 -61 -252 -7 -16 -18 -50 -26 -75 -7 -25 -39 -97 -71 -160
-31 -63 -55 -116 -52 -119 6 -7 7 -6 72 124 51 102 73 153 128 300 4 11 7 23
6 27 -1 4 3 20 9 35 6 15 13 44 15 63 2 19 9 60 14 90 35 208 11 486 -60 672
-23 61 -23 61 -11 54 13 -8 22 35 11 53 -6 11 -9 12 -10 3z"/>
<path d="M6525 6844 c-146 -20 -243 -53 -347 -120 -38 -24 -68 -46 -68 -49 0
-4 14 3 30 15 17 12 38 23 46 24 9 1 19 8 23 15 4 6 16 9 27 5 13 -4 15 -3 6
3 -9 7 -6 12 13 21 32 15 38 15 30 2 -3 -5 -1 -10 4 -10 6 0 11 6 11 14 0 17
95 44 197 56 149 16 331 -19 446 -87 21 -13 40 -23 43 -23 12 0 92 -61 134
-102 56 -55 92 -101 140 -181 38 -63 88 -203 76 -214 -3 -3 -1 -12 6 -20 7 -9
11 -57 11 -128 -1 -126 11 -167 14 -52 3 107 -14 234 -41 313 -26 77 -74 177
-87 182 -5 2 -9 8 -9 13 0 20 -128 143 -194 187 -85 56 -104 67 -140 76 -16 4
-24 11 -20 18 4 7 3 8 -5 4 -10 -6 -48 2 -101 21 -18 7 -31 8 -135 15 -44 4
-93 4 -110 2z"/>
<path d="M6381 6699 c-91 -18 -263 -87 -282 -113 -4 -5 -12 -5 -19 -1 -8 5
-11 4 -6 -3 3 -6 0 -14 -8 -19 -25 -14 -146 -133 -146 -143 0 -17 6 -12 84 65
42 41 83 75 91 75 8 0 15 4 15 9 0 15 147 81 228 103 101 27 285 29 352 5 25
-9 53 -17 62 -17 32 0 130 -49 122 -61 -5 -8 -2 -9 11 -2 26 15 58 -13 44 -39
-6 -12 -6 -18 1 -18 5 0 10 7 10 15 0 22 8 19 67 -27 79 -60 132 -124 127
-151 -4 -19 -3 -20 4 -3 6 13 11 16 16 8 4 -6 2 -22 -4 -34 -10 -20 -9 -21 2
-7 10 12 16 13 24 5 18 -20 63 -114 57 -120 -4 -3 -1 -6 6 -6 8 0 11 -6 7 -16
-3 -8 -2 -13 3 -10 19 12 45 -119 48 -238 1 -65 5 -121 8 -124 3 -3 4 55 2
129 -4 133 -15 181 -71 310 -8 19 23 36 35 18 4 -8 12 -8 24 -2 12 7 14 13 6
17 -6 4 -11 2 -11 -4 0 -6 -5 -8 -11 -4 -8 4 -8 9 0 17 6 6 11 16 11 21 0 6
-7 3 -15 -8 -8 -10 -19 -15 -26 -10 -8 4 -10 3 -5 -4 4 -7 1 -12 -8 -12 -19 0
-40 36 -42 73 -1 16 -7 34 -14 40 -13 12 -13 11 6 -38 4 -11 -15 7 -43 40 -28
33 -64 73 -81 89 -17 16 -29 34 -25 39 4 6 1 7 -6 3 -18 -11 -56 25 -39 36 8
6 5 7 -10 3 -15 -4 -32 1 -53 16 -17 12 -63 34 -101 49 -39 15 -64 30 -57 32
8 3 1 5 -16 5 -16 0 -57 5 -90 12 -69 13 -219 13 -284 0z"/>
<path d="M2450 6653 c-8 -4 -20 -12 -27 -19 -15 -15 -17 -84 -3 -84 6 0 10 -6
10 -14 0 -37 104 -22 116 17 11 36 -6 75 -41 91 -18 9 -35 16 -37 15 -1 0 -10
-3 -18 -6z"/>
<path d="M2521 5439 c-125 -56 -171 -209 -104 -349 15 -33 34 -60 40 -60 7 0
13 -4 13 -9 0 -20 68 -51 113 -51 50 0 125 24 143 46 6 8 16 14 21 14 6 0 19
19 29 42 36 80 22 222 -27 282 -5 6 -18 23 -29 38 -23 30 -95 68 -131 68 -13
0 -44 -10 -68 -21z m85 -26 c-10 -33 -36 -256 -38 -323 -1 -49 -3 -39 -8 45
-5 83 -7 95 -9 50 -1 -33 -6 -82 -11 -110 -6 -42 -8 -32 -9 60 -1 123 -20 131
-22 10 -2 -123 -17 -130 -19 -10 l-3 110 -10 -87 c-5 -49 -13 -88 -17 -88 -4
0 -5 39 -2 87 4 63 2 84 -6 79 -7 -4 -12 -33 -12 -67 0 -81 -16 -67 -23 21 -9
105 20 169 98 216 49 29 99 33 91 7z m90 -35 c20 -18 20 -22 9 -91 -7 -40 -16
-117 -20 -172 -7 -103 -13 -115 -54 -115 l-24 0 6 118 c6 136 34 295 51 285 6
-3 20 -14 32 -25z"/>
<path d="M3615 7501 c-74 -24 -158 -108 -176 -175 -12 -44 -5 -129 11 -134 6
-2 10 -9 10 -15 0 -18 59 -77 76 -77 7 0 14 -4 14 -10 0 -6 33 -10 78 -10 89
0 132 17 196 77 69 65 96 169 62 234 -21 42 -65 86 -101 103 -33 16 -131 20
-170 7z m157 -57 c14 -8 36 -26 48 -41 19 -24 21 -38 18 -95 -4 -77 -21 -106
-86 -152 -48 -34 -125 -45 -172 -26 -69 28 -112 119 -91 190 35 117 175 179
283 124z"/>
<path d="M6882 2885 c3 -3 25 -9 49 -14 l44 -9 -37 -1 c-37 -1 -51 -14 -25
-24 10 -4 10 -6 0 -6 -28 -2 -12 -30 20 -34 l32 -4 -32 -1 c-22 -1 -33 -7 -33
-17 0 -9 -9 -15 -25 -15 -18 0 -23 4 -19 15 5 12 -3 15 -32 16 -38 1 -38 2 -9
9 17 4 22 8 13 9 -9 0 -19 10 -23 21 -4 12 -18 21 -38 24 -238 35 -222 36
-221 -11 l1 -38 64 -6 c40 -3 81 0 109 8 56 16 69 16 50 0 -25 -20 -24 -47 2
-47 22 0 282 -39 397 -60 30 -6 56 -8 59 -5 3 2 -15 8 -39 12 -42 7 -43 7 -14
13 27 6 24 7 -25 15 l-55 9 40 7 c28 5 19 6 -30 4 -50 -3 -63 -1 -45 5 18 7
12 7 -22 3 -27 -3 -48 -1 -48 4 0 5 -17 8 -37 6 -38 -3 -38 -3 -8 7 21 7 57 7
116 -1 64 -9 91 -9 105 0 15 9 10 10 -26 5 -35 -4 -42 -3 -30 6 12 9 6 10 -27
8 -23 -2 -39 1 -36 6 4 5 -12 7 -37 3 -29 -4 -39 -2 -29 4 10 6 4 9 -20 9 -19
0 -32 3 -28 6 3 3 43 1 89 -5 58 -8 92 -8 113 -1 26 9 24 9 -20 6 -36 -4 -45
-2 -30 5 14 7 4 8 -35 5 -38 -3 -47 -2 -30 4 23 7 23 8 -9 9 -19 1 -32 4 -28
7 3 4 56 -1 117 -11 62 -9 114 -15 116 -12 4 3 -307 58 -330 57 -5 0 -7 -2 -4
-5z"/>
<path d="M6528 2726 c-1 -14 -2 -34 -2 -43 -1 -9 7 -17 19 -18 148 -13 218
-16 237 -9 22 7 22 7 3 16 -15 6 -12 7 13 3 17 -2 32 0 32 5 0 4 8 10 18 13 9
2 -8 8 -38 14 -30 6 -44 11 -30 12 14 0 42 -3 63 -8 21 -5 37 -5 37 0 0 5 12
9 28 8 l27 -1 -25 -9 c-18 -6 -9 -7 30 -4 37 3 45 1 25 -3 -28 -8 -27 -8 19
-15 26 -4 67 -5 90 -2 32 3 35 3 11 -3 -30 -8 -29 -8 14 -15 24 -4 46 -5 49
-2 3 3 -6 6 -19 6 -17 1 -14 3 11 8 27 5 -10 14 -160 39 -107 18 -203 32 -212
32 -14 0 -18 -8 -18 -35 0 -21 -5 -35 -12 -35 -16 0 -47 19 -33 20 26 2 -76
39 -122 45 -52 7 -53 6 -55 -19z"/>
<path d="M1775 2632 c-6 -5 -39 -15 -75 -21 -36 -7 -114 -26 -175 -43 -60 -16
-137 -37 -170 -44 -33 -8 -69 -18 -80 -23 -35 -16 -118 -41 -137 -41 -28 0
-21 -17 9 -23 16 -2 71 -16 123 -30 52 -14 158 -42 235 -62 77 -20 141 -38
143 -39 4 -4 -97 -225 -108 -236 -3 -3 -11 -21 -18 -40 -8 -19 -19 -47 -25
-62 -12 -30 -4 -46 15 -31 7 6 99 32 203 58 105 26 216 56 248 66 32 11 62 17
68 14 5 -4 9 -1 9 5 0 5 12 9 28 8 15 -1 50 4 77 11 28 6 77 18 110 26 l60 14
-55 -5 c-30 -3 -71 -10 -90 -15 -19 -5 -46 -9 -60 -8 -14 0 2 7 35 15 132 32
128 28 57 49 -34 10 -61 20 -58 22 2 2 36 -5 76 -17 40 -12 74 -19 77 -16 3 3
-10 10 -28 15 l-34 11 40 -5 c35 -4 37 -3 15 6 -26 11 -120 22 -182 21 -21 0
-36 4 -33 8 3 4 -5 8 -18 8 -12 0 -44 2 -72 5 -27 3 -54 6 -58 7 -5 0 -5 4 -2
10 3 5 0 20 -7 32 -7 13 -13 25 -13 28 -6 30 -30 90 -36 90 -4 0 -6 11 -4 25
1 14 -2 25 -6 25 -5 0 -9 7 -9 15 0 8 -6 15 -12 15 -9 0 -8 4 2 10 10 6 11 10
3 10 -7 0 -13 11 -13 25 0 17 -7 29 -22 35 -21 8 -21 9 -3 10 14 0 16 3 7 9
-7 4 -16 20 -20 35 -5 17 -11 23 -17 18z"/>
<path d="M7320 2615 c0 -8 -6 -15 -12 -15 -9 0 -8 -4 2 -10 9 -6 10 -10 3 -10
-9 0 -25 -43 -24 -65 0 -2 -11 -34 -24 -70 -21 -58 -21 -65 -7 -66 15 0 14 -1
-1 -8 -10 -4 -18 -11 -17 -15 1 -5 -4 -12 -10 -16 -6 -4 -14 -25 -17 -48 -6
-47 -4 -46 -190 -66 -13 -1 -26 -5 -29 -9 -4 -4 -19 -4 -33 -1 -19 4 -22 3
-12 -4 10 -7 -5 -9 -50 -6 -47 2 -60 1 -49 -7 11 -8 8 -9 -15 -5 -22 5 -26 4
-15 -4 12 -8 13 -10 1 -10 -8 0 -11 -3 -8 -6 4 -4 20 -1 37 6 17 7 33 10 37 7
3 -4 -5 -11 -18 -17 -20 -8 -21 -10 -4 -8 11 0 28 -2 37 -6 9 -4 26 -2 38 4
12 6 24 9 27 6 3 -3 -5 -10 -18 -15 -15 -6 -18 -10 -8 -10 9 -1 33 6 54 15 20
8 39 13 42 11 2 -3 -11 -10 -31 -17 -19 -6 -36 -16 -38 -22 -3 -8 -10 -8 -23
-1 -19 10 -151 26 -143 17 6 -5 248 -57 271 -58 9 0 17 -4 17 -9 0 -4 5 -5 11
-1 10 6 106 -17 154 -37 11 -4 83 -24 161 -43 77 -19 153 -40 168 -46 45 -17
58 -13 50 13 -4 12 -10 24 -13 27 -4 3 -13 21 -21 40 -7 19 -29 66 -47 104
-18 38 -33 75 -33 83 0 7 -4 13 -8 13 -8 0 -32 58 -32 77 0 6 28 16 63 22 34
7 71 16 82 21 11 5 74 23 141 39 66 16 147 37 179 47 l59 17 -119 39 c-66 21
-145 45 -175 52 -30 8 -89 23 -130 34 -68 19 -229 52 -251 52 -5 0 -9 -7 -9
-15z"/>
<path d="M6215 6368 c-20 -68 -20 -89 1 -60 16 23 44 30 44 11 0 -5 5 -7 11
-3 8 4 7 9 -2 15 -30 18 2 14 121 -17 69 -18 121 -32 116 -33 -5 -1 -3 -7 3
-14 6 -8 8 -18 4 -23 -4 -5 -1 -3 7 4 13 11 13 14 0 23 -12 8 -11 9 5 6 11 -2
19 -9 17 -16 -1 -7 2 -10 8 -6 18 11 11 23 -20 34 -16 5 -30 15 -30 21 0 6 -4
9 -9 5 -11 -6 -81 25 -81 36 0 4 -15 11 -32 14 -18 4 -54 18 -80 31 -26 13
-52 24 -57 24 -6 0 -17 -23 -26 -52z"/>
<path d="M6597 6239 c-9 -5 -22 -7 -29 -3 -7 4 -8 3 -4 -4 4 -6 2 -21 -4 -32
-13 -24 -6 -66 14 -93 8 -10 35 -21 64 -26 l50 -8 25 39 c21 34 24 44 15 69
-19 56 -84 85 -131 58z"/>
<path d="M6730 6090 c0 -14 38 -112 94 -243 10 -21 14 -48 11 -60 -5 -19 -4
-19 5 -5 12 19 67 49 72 39 2 -3 14 4 27 17 l24 22 -26 1 c-15 1 -33 2 -39 3
-7 0 -36 37 -65 81 -28 44 -57 86 -63 93 -7 7 -18 25 -26 40 -8 15 -14 20 -14
12z"/>
<path d="M3825 5858 c-204 -164 -355 -427 -401 -699 -21 -130 -15 -338 15
-449 67 -257 198 -465 391 -622 79 -64 132 -95 115 -68 -3 6 -1 10 5 10 6 0 8
5 5 10 -3 6 -11 10 -16 10 -6 0 -7 -4 -4 -10 3 -5 2 -10 -4 -10 -5 0 -13 5
-16 10 -3 6 -1 10 5 10 6 0 8 5 5 10 -3 6 -11 10 -16 10 -6 0 -7 -4 -4 -10 11
-17 -5 -11 -41 17 -19 14 -31 29 -26 32 5 3 -29 43 -75 89 -45 45 -83 79 -83
75 0 -4 17 -24 37 -45 20 -21 34 -40 31 -43 -3 -3 -26 19 -52 49 -45 53 -60
80 -31 56 8 -7 15 -8 15 -2 0 5 -6 15 -14 21 -11 9 -15 9 -18 -1 -5 -14 -63
73 -107 159 -32 64 -81 197 -80 216 0 7 9 -10 19 -38 21 -57 26 -41 7 21 -6
22 -17 39 -23 37 -33 -11 -54 373 -26 472 l12 40 -5 -45 c-21 -179 -13 -380
16 -445 7 -15 8 -11 4 15 -3 19 -8 64 -10 100 l-4 65 10 -69 c5 -38 13 -83 18
-100 l9 -31 2 30 c1 26 3 23 15 -20 24 -84 26 -102 6 -50 -23 59 -27 41 -6
-28 19 -62 94 -222 101 -215 3 3 -9 34 -26 68 -17 34 -29 64 -27 67 4 3 30
-45 75 -141 3 -5 0 -6 -7 -2 -16 10 -14 -7 5 -30 14 -17 15 -17 10 -1 -8 24
10 12 26 -16 10 -20 10 -21 -5 -8 -23 19 -21 6 5 -29 12 -17 25 -26 28 -20 4
6 21 -9 40 -32 l33 -43 -36 34 c-21 19 -37 31 -37 25 0 -5 28 -36 62 -69 35
-33 57 -53 50 -46 -30 36 -8 29 37 -11 27 -24 44 -46 39 -49 -23 -15 192 -143
223 -134 9 3 32 -1 52 -10 20 -8 42 -15 49 -15 7 0 -17 13 -53 29 -162 69
-293 164 -415 301 -84 96 -171 261 -210 401 -31 113 -44 342 -25 455 32 191
134 406 247 524 26 28 32 41 29 66 -3 29 2 37 56 80 34 27 56 50 50 52 -6 2
-9 8 -5 13 11 18 -12 8 -51 -23z m-39 -69 c-47 -45 -86 -86 -86 -92 0 -6 17 5
38 24 l37 34 -37 -40 c-49 -53 -49 -69 -1 -24 l37 34 -38 -43 c-141 -163 -235
-387 -257 -620 -6 -64 -14 -119 -16 -122 -5 -4 -2 50 12 205 4 48 4 49 -5 12
-5 -20 -14 -86 -18 -145 -6 -72 -10 -89 -11 -52 -3 132 35 319 94 454 19 44
33 82 30 84 -7 8 -47 -81 -81 -182 -19 -55 -32 -85 -28 -66 23 124 120 319
221 440 50 60 174 180 185 180 5 0 -29 -36 -76 -81z"/>
<path d="M1725 6000 c-3 -5 -22 -10 -40 -10 -39 0 -228 -58 -233 -71 -2 -5
-13 -9 -23 -9 -11 0 -17 -4 -14 -10 3 -5 -1 -10 -10 -10 -16 0 -229 -102 -251
-121 -6 -5 -15 -4 -21 2 -8 8 -13 8 -17 0 -4 -6 -1 -11 6 -12 7 0 2 -4 -10
-10 -13 -5 -28 -7 -33 -3 -5 3 -9 -1 -9 -9 0 -8 -8 -18 -17 -21 -33 -13 -63
-31 -63 -38 0 -5 -4 -8 -9 -8 -12 0 -105 -61 -109 -72 -2 -4 -8 -8 -13 -8 -17
0 -89 -62 -89 -77 0 -21 16 -15 80 30 33 23 69 47 79 52 10 6 26 17 35 24 9 7
22 11 30 8 10 -4 13 -1 10 7 -3 8 4 16 15 19 12 3 21 1 21 -5 0 -5 5 -6 10 -3
6 4 8 11 4 16 -3 6 3 13 15 16 12 3 21 9 21 13 0 5 10 12 22 16 12 3 29 14 39
23 10 9 35 23 56 30 21 8 40 17 43 20 3 3 32 20 65 36 33 17 62 33 65 37 3 4
25 10 49 14 29 5 38 10 29 15 -9 6 -4 9 15 9 15 0 27 5 27 10 0 6 9 10 19 10
11 0 23 5 26 10 3 6 17 10 30 10 13 0 27 5 30 10 3 6 19 10 35 10 16 0 32 5
35 10 3 6 16 10 28 10 12 1 47 9 77 20 l55 19 -52 1 c-28 0 -55 -4 -58 -10z"/>
<path d="M1043 5103 c-8 -3 -13 -23 -13 -49 0 -34 6 -51 25 -72 14 -15 25 -32
25 -39 0 -7 4 -13 8 -13 5 0 19 -9 32 -20 27 -24 40 -25 66 -6 16 13 17 18 7
35 -7 12 -13 29 -13 40 0 10 -7 24 -15 31 -9 7 -14 15 -11 17 8 8 -79 84 -94
82 -3 0 -11 -3 -17 -6z"/>
<path d="M4453 5234 c-58 -21 -132 -89 -158 -146 -32 -70 -29 -166 9 -238 35
-66 64 -94 135 -127 72 -34 176 -30 244 10 89 53 137 138 137 245 0 107 -55
198 -151 248 -46 24 -162 28 -216 8z m181 -25 c99 -38 155 -110 162 -208 2
-31 2 -50 -2 -44 -4 10 -9 10 -20 -1 -25 -25 -99 -30 -167 -11 -34 9 -66 21
-72 25 -24 18 -135 54 -183 59 l-53 6 26 51 c32 64 73 101 139 125 67 24 102
24 170 -2z"/>
<path d="M4035 4919 c-49 -10 -98 -18 -107 -19 -9 0 -28 -4 -41 -9 -22 -9 -24
-13 -17 -55 4 -26 9 -48 11 -50 3 -4 181 33 284 58 17 4 20 12 17 51 -5 53 -6
54 -147 24z"/>
<path d="M1856 4787 c-16 -12 -18 -21 -10 -73 6 -45 9 -52 12 -29 4 35 19 55
39 55 21 0 76 -58 94 -97 7 -18 17 -33 21 -33 5 0 8 -7 8 -16 0 -8 7 -22 15
-30 8 -9 15 -26 15 -39 0 -12 7 -26 16 -29 12 -5 15 -14 10 -39 -3 -17 -1 -39
4 -47 8 -11 9 -8 4 13 -12 54 12 24 59 -71 26 -54 47 -109 47 -122 0 -18 3
-21 9 -11 7 10 11 5 16 -18 3 -17 10 -31 14 -31 10 0 35 -100 27 -108 -4 -3
-11 0 -16 8 -6 8 -10 11 -10 5 0 -5 -7 1 -16 13 -17 25 -34 29 -34 7 0 -21 59
-75 82 -75 10 0 22 10 27 23 9 23 3 98 -8 107 -8 6 -71 134 -71 144 0 4 -7 14
-15 22 -8 9 -15 24 -15 35 0 10 -4 19 -10 19 -5 0 -10 5 -10 11 0 16 -111 244
-121 247 -5 2 -9 10 -9 18 0 7 -20 45 -45 84 -42 63 -49 70 -79 70 -18 0 -40
-6 -50 -13z"/>
<path d="M4511 3025 c-19 -19 -26 -37 -29 -85 -5 -67 6 -88 62 -117 51 -27
146 -3 146 36 0 6 5 11 10 11 13 0 13 103 0 132 -15 32 -55 48 -114 47 -40 0
-56 -6 -75 -24z"/>
<path d="M5222 2973 l3 -38 77 -3 c88 -3 118 8 118 42 0 31 -15 36 -116 36
l-85 0 3 -37z"/>
<path d="M4382 2115 l-31 -34 -3 27 -3 27 -147 3 -148 3 0 -46 c0 -32 4 -45
14 -45 12 0 15 -31 18 -171 l3 -171 33 -29 c55 -49 147 -36 180 25 12 24 17
67 20 188 3 115 7 158 17 162 10 3 11 -4 4 -32 -14 -61 -10 -203 7 -262 9 -30
16 -66 16 -80 0 -40 16 -60 46 -58 15 1 41 -6 59 -15 18 -9 46 -17 62 -17 26
0 32 5 39 33 11 40 5 57 -19 57 -17 0 -17 2 4 48 15 34 22 73 25 146 6 124 -9
195 -50 242 -25 29 -37 34 -73 34 -36 0 -48 -5 -73 -35z m115 0 c37 -26 58
-99 58 -205 0 -120 -9 -161 -42 -201 -22 -25 -24 -32 -12 -40 8 -5 22 -9 32
-9 18 0 21 -8 11 -34 -8 -21 -22 -20 -68 5 -21 11 -47 18 -57 16 -27 -7 -45
19 -23 31 16 9 16 11 2 26 -29 29 -42 89 -43 196 0 78 5 117 18 153 28 71 76
96 124 62z m-307 -20 c0 -14 -5 -25 -10 -25 -7 0 -10 -60 -8 -172 3 -162 4
-173 22 -176 39 -8 46 22 46 190 0 99 -4 158 -10 158 -5 0 -10 11 -10 25 0 23
3 25 50 25 47 0 50 -2 50 -25 0 -16 -6 -25 -15 -25 -13 0 -15 -25 -15 -162 0
-111 -4 -171 -13 -188 -32 -64 -128 -64 -159 0 -15 29 -18 63 -18 193 0 133
-2 157 -15 157 -9 0 -15 9 -15 25 0 24 3 25 60 25 57 0 60 -1 60 -25z"/>
<path d="M4434 2058 c-12 -19 -17 -248 -7 -288 11 -43 43 -49 54 -10 9 32 9
248 0 280 -8 28 -35 38 -47 18z"/>
<path d="M3337 2133 c-4 -3 -7 -22 -7 -41 0 -25 5 -35 20 -39 19 -5 20 -14 20
-153 0 -141 -1 -148 -21 -153 -17 -5 -20 -12 -17 -44 l3 -38 88 -3 87 -3 0 46
c0 33 -4 45 -15 45 -11 0 -15 11 -15 40 0 31 4 40 18 40 63 0 119 90 110 175
-3 25 -2 45 3 45 5 0 9 -67 9 -149 0 -126 -2 -150 -16 -155 -11 -4 -14 -17
-12 -43 l3 -38 235 0 235 0 0 110 0 110 -45 0 -45 0 -6 -70 c-4 -51 -6 -29 -7
83 -2 126 0 152 12 152 19 0 30 34 22 66 l-6 24 -198 -2 -197 -3 -6 -30 c-4
-16 -7 -25 -8 -18 0 6 -16 21 -35 32 -27 17 -50 21 -118 21 -47 0 -88 -3 -91
-7z m214 -51 c26 -29 29 -40 29 -96 0 -80 -28 -120 -90 -131 l-40 -7 0 -59 c0
-52 2 -59 20 -59 15 0 20 -7 20 -25 0 -24 -2 -25 -70 -25 -68 0 -70 1 -70 25
0 18 5 25 20 25 19 0 20 7 20 170 0 163 -1 170 -20 170 -15 0 -20 7 -20 26 l0
26 86 -3 c82 -4 87 -5 115 -37z m269 -27 l0 -65 -30 0 c-28 0 -30 2 -30 40 0
36 -2 40 -25 40 -24 0 -25 -2 -25 -70 0 -63 2 -70 20 -70 15 0 20 -7 20 -25 0
-18 -5 -25 -20 -25 -18 0 -20 -7 -20 -75 0 -73 1 -75 25 -75 23 0 25 4 25 40
0 38 2 40 30 40 l30 0 0 -65 0 -65 -105 0 -105 0 0 25 c0 18 5 25 20 25 19 0
20 7 20 170 0 163 -1 170 -20 170 -15 0 -20 7 -20 25 l0 25 105 0 105 0 0 -65z
m150 40 c0 -16 -6 -25 -15 -25 -13 0 -15 -26 -15 -170 l0 -170 25 0 c24 0 25
2 25 70 l0 70 30 0 30 0 0 -95 0 -95 -105 0 -105 0 0 25 c0 18 5 25 20 25 19
0 20 7 20 170 0 163 -1 170 -20 170 -15 0 -20 7 -20 25 0 24 2 25 65 25 63 0
65 -1 65 -25z m-180 -120 c45 0 45 0 51 40 3 22 6 -30 6 -115 0 -85 -3 -137
-6 -115 -6 40 -6 40 -51 40 -45 0 -45 0 -51 -40 -6 -37 -6 -36 -8 17 -1 52 1
57 22 60 19 3 22 9 22 43 0 34 -3 40 -22 43 -21 3 -23 9 -22 55 2 51 2 51 8
12 6 -40 6 -40 51 -40z"/>
<path d="M4570 2095 c0 -32 4 -45 14 -45 12 0 15 -31 18 -171 l3 -171 33 -29
c55 -49 147 -36 180 25 13 24 17 67 20 189 4 146 5 157 23 157 18 0 19 -9 19
-149 0 -126 -2 -150 -16 -155 -11 -4 -14 -17 -12 -43 l3 -38 475 0 475 0 3 35
c3 23 -2 38 -13 46 -22 16 -65 296 -46 302 6 2 11 24 11 48 l0 45 -102 -3
-103 -3 -3 -35 c-2 -21 2 -38 11 -45 12 -9 11 -31 -7 -157 -19 -142 -21 -148
-43 -148 -23 0 -23 0 -23 149 0 142 1 149 21 154 17 5 20 12 17 44 l-3 38 -85
0 -85 0 -3 -28 -3 -28 -35 31 -35 30 -354 0 -355 0 0 -45z m140 0 c0 -14 -5
-25 -10 -25 -7 0 -10 -60 -8 -172 3 -162 4 -173 22 -176 39 -8 46 22 46 190 0
99 -4 158 -10 158 -5 0 -10 11 -10 25 0 23 3 25 50 25 47 0 50 -2 50 -25 0
-16 -6 -25 -15 -25 -13 0 -15 -25 -15 -162 0 -111 -4 -171 -13 -188 -32 -64
-128 -64 -159 0 -15 29 -18 63 -18 193 0 133 -2 157 -15 157 -9 0 -15 9 -15
25 0 24 3 25 60 25 57 0 60 -1 60 -25z m370 -40 l0 -65 -30 0 c-28 0 -30 2
-30 40 0 36 -2 40 -25 40 -24 0 -25 -2 -25 -70 0 -63 2 -70 20 -70 15 0 20 -7
20 -25 0 -18 -5 -25 -20 -25 -18 0 -20 -7 -20 -75 0 -73 1 -75 25 -75 23 0 25
4 25 40 0 38 2 40 30 40 l30 0 0 -65 0 -65 -105 0 -105 0 0 25 c0 18 5 25 20
25 19 0 20 7 20 170 0 163 -1 170 -20 170 -15 0 -20 7 -20 25 l0 25 105 0 105
0 0 -65z m195 51 c64 -27 85 -114 41 -179 l-24 -35 21 -81 c13 -47 27 -81 34
-81 7 0 13 -12 13 -26 0 -23 -3 -25 -37 -22 l-38 3 -25 98 c-31 121 -50 129
-50 22 0 -60 3 -75 15 -75 9 0 15 -9 15 -25 0 -24 -2 -25 -65 -25 -63 0 -65 1
-65 25 0 18 5 25 20 25 19 0 20 7 20 170 0 163 -1 170 -20 170 -15 0 -20 7
-20 25 0 24 2 25 65 25 36 0 81 -6 100 -14z m225 -11 c0 -16 -6 -25 -15 -25
-13 0 -15 -26 -15 -170 0 -144 2 -170 15 -170 9 0 15 -9 15 -25 0 -24 -2 -25
-65 -25 -63 0 -65 1 -65 25 0 18 5 25 20 25 19 0 20 7 20 170 0 163 -1 170
-20 170 -15 0 -20 7 -20 25 0 24 2 25 65 25 63 0 65 -1 65 -25z m240 0 c0 -16
-6 -25 -16 -25 -13 0 -15 -7 -11 -37 3 -21 14 -94 23 -163 10 -75 22 -129 30
-136 8 -6 14 -21 14 -33 0 -19 -5 -21 -55 -21 -52 0 -55 1 -55 25 0 14 5 25
11 25 6 0 9 19 7 48 -3 43 -5 47 -30 50 -18 2 -28 -1 -28 -10 0 -7 -3 -30 -6
-50 -5 -31 -4 -38 10 -38 10 0 16 -9 16 -25 0 -24 -3 -25 -60 -25 -57 0 -60 1
-60 25 0 16 6 25 15 25 8 0 15 6 15 13 0 6 11 83 24 170 18 126 20 157 9 157
-7 0 -13 11 -13 25 0 25 1 25 80 25 79 0 80 0 80 -25z m-690 -120 c45 0 45 0
48 38 2 20 7 37 13 37 5 0 9 -63 9 -150 0 -87 -4 -150 -9 -150 -6 0 -11 17
-13 38 -3 37 -3 37 -48 37 -45 0 -45 0 -51 -40 -6 -37 -6 -36 -8 17 -1 52 1
57 22 60 19 3 22 9 22 43 0 34 -3 40 -22 43 -21 3 -23 9 -22 55 2 51 2 51 8
12 6 -40 6 -40 51 -40z"/>
<path d="M3828 1573 c-42 -10 -26 -36 93 -151 l121 -117 -64 3 c-71 4 -99 -11
-75 -40 19 -25 495 -348 511 -348 16 0 36 29 36 53 0 8 -65 61 -145 118 l-146
104 63 5 c51 4 63 8 63 22 0 11 -79 80 -201 177 -214 169 -230 180 -256 174z
m89 -83 c36 -33 158 -129 260 -205 l81 -60 -74 -3 c-88 -3 -93 -14 -26 -59 26
-18 61 -45 79 -62 17 -16 47 -39 65 -52 18 -12 47 -35 65 -50 17 -15 37 -29
45 -31 7 -3 9 -9 4 -14 -5 -5 -11 -4 -13 4 -3 6 -10 12 -17 12 -7 0 -23 9 -35
19 -12 11 -68 50 -124 88 -56 37 -113 78 -127 91 -14 12 -28 22 -32 22 -4 0
-37 20 -74 45 l-65 45 85 0 c47 0 86 3 86 8 0 7 -165 167 -245 238 l-30 26 32
-18 c18 -10 45 -30 60 -44z"/>
<path d="M5283 1566 c-11 -6 -111 -83 -222 -171 -126 -100 -201 -165 -199
-175 2 -11 20 -16 66 -20 l63 -5 -146 -104 c-80 -57 -145 -110 -145 -118 0
-24 20 -53 36 -53 16 0 492 323 511 348 24 29 -4 44 -75 40 l-64 -3 121 117
c120 116 134 140 92 151 -10 2 -27 -1 -38 -7z m12 -41 c-62 -53 -245 -230
-245 -237 0 -5 39 -8 86 -8 l85 0 -65 -45 c-37 -25 -70 -45 -74 -45 -4 0 -18
-10 -32 -22 -14 -13 -71 -54 -127 -91 -56 -38 -112 -77 -124 -88 -12 -10 -28
-19 -35 -19 -7 0 -14 -6 -17 -12 -2 -8 -8 -9 -13 -4 -5 5 -3 11 4 14 8 2 28
16 45 31 18 15 47 38 65 50 18 13 48 36 65 52 18 17 53 44 79 62 67 45 62 56
-26 59 l-74 3 81 60 c99 73 240 185 247 195 7 10 92 70 99 70 3 0 -7 -11 -24
-25z"/>
</g>
</svg>
